<svg width="377" height="377" viewBox="0 0 377 377" fill="none" xmlns="http://www.w3.org/2000/svg">
<g clip-path="url(#clip0)">
<path d="M179.997 289.668C179.079 288.611 177.761 287.989 176.361 287.95C168.683 287.744 160.989 286.873 153.494 285.363C152.122 285.09 150.698 285.398 149.567 286.222C148.436 287.045 147.703 288.305 147.544 289.696L143.728 323.218C143.416 325.959 145.385 328.434 148.127 328.746L171.844 331.446C174.585 331.759 177.061 329.789 177.373 327.048L181.191 293.509C181.348 292.118 180.915 290.724 179.997 289.668Z" fill="#FFDB56"/>
<path d="M176.361 287.95C172.527 287.847 168.689 287.578 164.875 287.147L159.985 330.096L171.844 331.446C174.585 331.758 177.061 329.789 177.373 327.047L181.191 293.509C181.349 292.118 180.916 290.725 179.999 289.668C179.08 288.612 177.762 287.989 176.361 287.95Z" fill="#FFBB24"/>
<path d="M163.599 297.076C135.817 293.913 109.53 282.707 87.8545 264.507C85.742 262.732 85.4671 259.582 87.2416 257.468C89.016 255.355 92.167 255.081 94.2796 256.855C114.438 273.782 138.894 284.206 164.738 287.149C171.856 287.959 179.075 288.201 186.343 287.857C220.17 286.252 251.833 272.012 275.499 247.76C299.166 223.507 312.627 191.504 313.403 157.648C314.176 123.961 302.369 91.5455 280.158 66.3712C278.333 64.3027 278.53 61.1452 280.599 59.3201C282.668 57.4945 285.824 57.6927 287.65 59.7606C311.528 86.825 324.222 121.67 323.391 157.877C322.557 194.27 308.087 228.669 282.649 254.737C257.211 280.805 223.177 296.111 186.815 297.836C179.009 298.207 171.245 297.945 163.599 297.076Z" fill="#FFDB56"/>
<path d="M229.912 347.894C228.103 342.01 225.385 337.764 221.358 334.532C216.579 330.697 209.971 328.345 201.155 327.341L123.253 318.472C114.438 317.469 107.47 318.275 101.951 320.938C97.3009 323.183 93.6975 326.709 90.6127 332.036C90.1168 332.891 90.1551 333.915 90.7156 334.776C91.2752 335.637 92.286 336.228 93.4223 336.357L226.205 351.474C227.34 351.603 228.458 351.255 229.197 350.541C229.935 349.828 230.203 348.839 229.912 347.894Z" fill="#FFD774"/>
<path d="M230.766 347.864C229.035 342.025 226.421 337.816 222.538 334.618C217.93 330.823 211.55 328.507 203.031 327.537L179.409 324.848C187.928 325.817 194.308 328.133 198.916 331.928C202.799 335.127 205.413 339.336 207.144 345.175C207.422 346.113 207.16 347.096 206.443 347.807C205.727 348.518 204.645 348.867 203.547 348.742L227.169 351.431C228.267 351.556 229.348 351.207 230.065 350.496C230.782 349.785 231.044 348.802 230.766 347.864Z" fill="#FFBB24"/>
<path d="M303.368 43.7831C303.317 39.6503 301.66 35.7844 298.702 32.8978C295.744 30.0106 291.839 28.4506 287.706 28.5001C283.573 28.5502 279.707 30.208 276.82 33.1664L248.885 61.7937C247.904 62.7982 247.392 64.1681 247.473 65.5696C247.554 66.9702 248.22 68.2732 249.308 69.1583C254.464 73.3517 259.288 78.068 263.643 83.1755C264.468 84.1422 265.627 84.7547 266.879 84.8973C267.011 84.9123 267.144 84.9221 267.278 84.9266C268.681 84.9735 270.04 84.4277 271.021 83.4225L298.971 54.7802C301.856 51.8211 303.418 47.9153 303.368 43.7831Z" fill="#FFDB56"/>
<path d="M112.498 243.542C112.417 242.142 111.751 240.839 110.663 239.953C105.506 235.76 100.683 231.044 96.3275 225.936C95.4159 224.867 94.0957 224.229 92.6945 224.185C91.291 224.139 89.9322 224.684 88.9516 225.689L61.0013 254.332C58.1141 257.29 56.5528 261.195 56.6036 265.327C56.6537 269.46 58.3109 273.326 61.2692 276.213C63.7517 278.636 66.9024 280.126 70.2945 280.512C70.9437 280.586 71.6016 280.619 72.2656 280.61C76.3984 280.56 80.2643 278.903 83.1508 275.945L111.086 247.317C112.067 246.314 112.578 244.943 112.498 243.542Z" fill="#FFDB56"/>
<path d="M303.368 43.7834C303.318 39.6506 301.661 35.7846 298.702 32.8981C296.533 30.7818 293.854 29.3813 290.951 28.8022C291.808 30.711 292.28 32.7899 292.306 34.945C292.357 39.0777 290.795 42.9829 287.909 45.9406L259.958 74.5829C259.162 75.3992 258.115 75.9062 256.998 76.0445C259.313 78.3196 261.533 80.6992 263.643 83.173C264.467 84.1397 265.626 84.7521 266.879 84.8948C267.011 84.9098 267.143 84.9195 267.277 84.9241C268.681 84.9709 270.04 84.4252 271.02 83.42L298.97 54.7777C301.857 51.8213 303.419 47.9156 303.368 43.7834Z" fill="#FFBB24"/>
<path d="M112.498 243.542C112.418 242.142 111.751 240.839 110.663 239.953C107.639 237.494 104.734 234.851 101.968 232.059C102.174 232.563 102.301 233.102 102.332 233.657C102.413 235.058 101.9 236.428 100.921 237.433L72.9856 266.059C70.0984 269.018 66.2332 270.674 62.1004 270.725C61.4365 270.733 60.7785 270.7 60.1293 270.626C59.2009 270.521 58.2929 270.325 57.4084 270.057C58.178 272.361 59.4814 274.468 61.2704 276.213C63.7528 278.637 66.9036 280.126 70.2956 280.512C70.9449 280.586 71.6027 280.62 72.2667 280.611C76.3995 280.561 80.2654 278.904 83.152 275.945L111.087 247.318C112.067 246.314 112.579 244.943 112.498 243.542Z" fill="#FFBB24"/>
<path d="M193.857 35.501C128.129 28.0183 68.5677 75.4036 61.085 141.132C53.6023 206.86 100.988 266.419 166.716 273.902C232.444 281.385 292.005 233.999 299.488 168.271C306.97 102.543 259.585 42.9837 193.857 35.501Z" fill="#C1F5FF"/>
<path d="M234.175 85.1127C229.588 80.5637 222.969 76.1844 217.128 72.3206C213.457 69.8937 208.274 66.4644 205.919 64.2388C210.905 62.2339 225.379 60.9235 239.66 61.3377C241.925 61.4036 243.95 59.9366 244.594 57.7649C245.238 55.5926 244.341 53.2595 242.406 52.0788C227.476 42.9711 211.039 37.3438 193.555 35.3533C174.428 33.1758 154.882 35.6524 137.03 42.5158C119.759 49.1554 104.006 59.893 91.4746 73.5671C90.2727 74.8785 89.8588 76.7296 90.3886 78.428C94.1194 90.4032 99.2032 100.487 105.499 108.4C113.685 118.69 113.462 137.257 113.298 150.814C113.188 159.99 113.108 166.62 115.206 170.74C118.417 177.05 123.843 180.939 130.182 181.66C131.531 181.814 132.924 181.824 134.343 181.684C144.63 180.664 153.45 172.246 156.814 160.239C159.994 148.888 167.317 142.82 176.588 135.137C181.155 131.353 186.33 127.064 191.484 121.694C203.101 109.588 196.351 98.1096 192.724 91.9429C192.346 91.3004 191.904 90.5482 191.526 89.8576C195.252 90.7497 202.881 95.5447 207.268 98.3012C217.255 104.578 225.879 110 232.87 108.298C235.496 107.658 237.624 106.06 239.026 103.677C243.249 96.4999 238.718 89.6199 234.175 85.1127Z" fill="#4CE166" fill-opacity="0.61"/>
<path d="M144.138 234.928C141.446 232.625 141.774 230.134 143.313 224.116C144.803 218.291 146.843 210.312 139.98 203.802C130.382 194.698 119.521 200.038 109.017 205.204C105.508 206.929 101.881 208.713 98.0987 210.127C93.0133 212.027 88.3791 215.614 84.3228 220.786C82.924 222.57 82.9019 225.072 84.2692 226.881C100.551 248.422 123.856 263.983 149.892 270.696C150.119 270.755 150.348 270.797 150.576 270.823C152.509 271.043 154.424 270.115 155.437 268.404C161.866 257.546 154.086 243.44 144.138 234.928Z" fill="#4CE166" fill-opacity="0.61"/>
<path d="M296.612 184.058C294.966 181.137 285.295 165.85 263.869 167.251C253.923 167.901 245.133 171.525 238.071 174.437C229.909 177.802 224.748 179.765 221.622 177.791C214.055 173.013 201.801 170.54 193.022 175.062C188.618 177.33 183.256 182.231 182.725 192.7C182.16 203.844 189.282 211.36 195.005 217.4C202.094 224.881 202.281 226.287 200.005 229.051C193.621 236.803 191.952 246.996 195.543 256.319C198.348 263.604 204.072 268.959 210.765 270.736C252.251 259.786 285.819 226.954 296.612 184.058Z" fill="#4CE166" fill-opacity="0.61"/>
<path d="M296.612 184.058C295.15 181.464 287.355 169.132 270.626 167.378C264.83 210.735 236.306 245.802 198.501 261.888C201.59 266.297 205.925 269.449 210.765 270.735C252.251 259.786 285.819 226.954 296.612 184.058Z" fill="#44C868"/>
<path d="M230.671 61.2974C233.615 61.2403 236.642 61.2506 239.661 61.3384C241.925 61.4044 243.951 59.9374 244.595 57.7656C245.239 55.5933 244.342 53.2602 242.407 52.0795C227.477 42.9718 211.04 37.3445 193.556 35.3541C188.782 34.8105 183.981 34.5568 179.188 34.5899C198.758 39.2312 216.285 48.5951 230.671 61.2974Z" fill="#44C868"/>
</g>
<defs>
<clipPath id="clip0">
<rect width="340" height="340" fill="white" transform="translate(38.458) rotate(6.49479)"/>
</clipPath>
</defs>
</svg>
