<svg width="512" height="512" viewBox="0 0 512 512" fill="none" xmlns="http://www.w3.org/2000/svg">
<g clip-path="url(#clip0)">
<path d="M337.656 105.933H493.374C502.757 106.113 510.757 99.1795 511.913 89.8671C512.331 84.9374 510.671 80.0585 507.339 76.4062C504.003 72.75 499.292 70.6563 494.347 70.625H370.761C361.039 70.5508 353.176 62.6915 353.105 52.9689C353.133 43.2307 361.023 35.344 370.761 35.3127H406.07C415.453 35.4924 423.452 28.5589 424.609 19.2464C425.027 14.3168 423.367 9.43792 420.035 5.7856C416.699 2.12938 411.988 0.0356402 407.042 0.00439042H18.6309C9.24818 -0.175296 1.24824 6.75825 0.0919951 16.0707C-0.435345 21.2855 1.45136 26.4534 5.21306 30.1058C8.48256 33.4573 12.9747 35.3401 17.6583 35.3127H88.2789C96.5562 35.3284 103.712 41.0901 105.494 49.172C105.775 50.4181 105.923 51.6915 105.935 52.9689C105.861 62.6915 98.0015 70.5508 88.2789 70.625H62.7674C53.3885 70.4453 45.3847 77.3789 44.2284 86.6913C43.8105 91.621 45.4706 96.4998 48.8065 100.152C52.1385 103.808 56.8494 105.902 61.7947 105.933H337.656Z" fill="#E6E7E8"/>
<path d="M0.00195312 467.864H511.999V503.173C511.999 508.048 508.049 512.001 503.174 512.001H8.83002C3.95505 512.001 0.00195313 508.048 0.00195313 503.173L0.00195312 467.864Z" fill="#F9EAB0"/>
<path d="M176.556 167.726H335.449C345.199 167.726 353.105 175.632 353.105 185.382V467.864H158.899V185.382C158.899 175.632 166.806 167.726 176.556 167.726V167.726Z" fill="#F9EAB0"/>
<path d="M88.2782 273.658H141.243C150.993 273.658 158.899 281.56 158.899 291.31V467.864H70.6221V291.31C70.6221 281.56 78.5283 273.658 88.2782 273.658V273.658Z" fill="#FAC176"/>
<path d="M370.761 273.658H423.725C433.475 273.658 441.381 281.56 441.381 291.31V467.864H353.104V291.31C353.104 281.56 361.007 273.658 370.761 273.658V273.658Z" fill="#FAC176"/>
<path d="M317.792 467.864V337.806C317.601 328.365 315.909 319.013 312.78 310.107C302.999 280.717 271.89 264.537 256 238.346C240.113 264.537 209.004 280.717 199.223 310.107C196.094 319.013 194.402 328.365 194.207 337.806V467.864H317.792Z" fill="#FAC176"/>
<path d="M97.1064 344.275C92.2314 344.275 88.2783 340.326 88.2783 335.451V317.795C88.2783 312.92 92.2314 308.967 97.1064 308.967C101.981 308.967 105.935 312.92 105.935 317.795V335.451C105.935 340.326 101.981 344.275 97.1064 344.275V344.275Z" fill="#F18D46"/>
<path d="M132.415 344.275C127.54 344.275 123.591 340.326 123.591 335.451V317.795C123.591 312.92 127.54 308.967 132.415 308.967C137.29 308.967 141.243 312.92 141.243 317.795V335.451C141.243 340.326 137.29 344.275 132.415 344.275V344.275Z" fill="#F18D46"/>
<path d="M97.1064 397.244C92.2314 397.244 88.2783 393.291 88.2783 388.416V370.76C88.2783 365.885 92.2314 361.932 97.1064 361.932C101.981 361.932 105.935 365.885 105.935 370.76V388.416C105.935 393.291 101.981 397.244 97.1064 397.244Z" fill="#F18D46"/>
<path d="M132.415 397.244C127.54 397.244 123.591 393.291 123.591 388.416V370.76C123.591 365.885 127.54 361.932 132.415 361.932C137.29 361.932 141.243 365.885 141.243 370.76V388.416C141.243 393.291 137.29 397.244 132.415 397.244Z" fill="#F18D46"/>
<path d="M379.589 344.275C374.71 344.275 370.761 340.326 370.761 335.451V317.795C370.761 312.92 374.71 308.967 379.589 308.967C384.464 308.967 388.413 312.92 388.413 317.795V335.451C388.413 340.326 384.464 344.275 379.589 344.275V344.275Z" fill="#F18D46"/>
<path d="M414.897 344.275C410.022 344.275 406.069 340.326 406.069 335.451V317.795C406.069 312.92 410.022 308.967 414.897 308.967C419.772 308.967 423.726 312.92 423.726 317.795V335.451C423.726 340.326 419.772 344.275 414.897 344.275V344.275Z" fill="#F18D46"/>
<path d="M379.589 397.244C374.71 397.244 370.761 393.291 370.761 388.416V370.76C370.761 365.885 374.71 361.932 379.589 361.932C384.464 361.932 388.413 365.885 388.413 370.76V388.416C388.413 393.291 384.464 397.244 379.589 397.244Z" fill="#F18D46"/>
<path d="M414.897 397.244C410.022 397.244 406.069 393.291 406.069 388.416V370.76C406.069 365.885 410.022 361.932 414.897 361.932C419.772 361.932 423.726 365.885 423.726 370.76V388.416C423.726 393.291 419.772 397.244 414.897 397.244Z" fill="#F18D46"/>
<path d="M345.475 167.726C350.401 159.823 353.042 150.714 353.104 141.402C353.104 111.39 326.401 94.7926 303.909 80.9255C295.644 75.8318 287.648 70.5701 279.89 64.7264C268.761 57.9842 260.316 47.5898 255.999 35.3125C251.687 47.5898 243.242 57.9842 232.113 64.7264C224.355 70.5701 216.355 75.8318 208.093 80.9255C185.601 94.7926 158.898 111.371 158.898 141.402C158.961 150.714 161.602 159.823 166.523 167.726H345.475Z" fill="#F5EFCA"/>
<path d="M34.4314 242.479L26.3182 197.839C25.5565 193.636 21.9002 190.581 17.6307 190.581C13.3651 190.581 9.70501 193.636 8.9472 197.839L0.884759 242.479C0.306639 245.604 0.00976557 248.772 0.00195312 251.952V467.864H35.3142V251.952C35.3064 248.772 35.0134 245.604 34.4314 242.479Z" fill="#F5EFCA"/>
<path d="M0.00195312 273.658H35.3145V326.623H0.00195312V273.658Z" fill="#F9EAB0"/>
<path d="M511.115 242.479L503.006 197.839C502.244 193.636 498.588 190.581 494.318 190.581C490.049 190.581 486.393 193.636 485.631 197.839L477.572 242.479C476.99 245.604 476.697 248.772 476.689 251.952V467.864H511.998V251.952C511.994 248.772 511.697 245.604 511.115 242.479Z" fill="#F5EFCA"/>
<path d="M476.689 273.658H511.998V326.623H476.689V273.658Z" fill="#F9EAB0"/>
<path d="M155.431 273.659C157.677 269.952 158.876 265.702 158.899 261.37C158.899 247.358 146.763 239.62 136.54 233.12C132.778 230.745 129.149 228.292 125.618 225.565C120.532 222.386 116.696 217.546 114.763 211.866C112.833 217.554 108.997 222.405 103.903 225.593C100.372 228.319 96.7432 230.772 92.9854 233.147C82.7627 239.62 70.6221 247.358 70.6221 261.37C70.6494 265.702 71.8486 269.952 74.0908 273.659H155.431Z" fill="#F5EFCA"/>
<path d="M437.909 273.659C440.155 269.952 441.354 265.702 441.382 261.37C441.382 247.358 429.241 239.62 419.019 233.12C415.261 230.745 411.632 228.292 408.101 225.565C403.011 222.386 399.175 217.546 397.241 211.866C395.312 217.554 391.476 222.405 386.386 225.593C382.854 228.319 379.226 230.772 375.464 233.147C365.241 239.62 353.104 247.358 353.104 261.397C353.136 265.722 354.331 269.96 356.573 273.659H437.909Z" fill="#F5EFCA"/>
<path d="M256 344.275C251.125 344.275 247.176 340.326 247.176 335.451V300.139C247.176 295.264 251.125 291.311 256 291.311C260.879 291.311 264.828 295.264 264.828 300.139V335.451C264.828 340.326 260.879 344.275 256 344.275V344.275Z" fill="#F18D46"/>
<path d="M229.52 344.275C224.645 344.275 220.691 340.326 220.691 335.451V326.623C220.691 321.748 224.645 317.795 229.52 317.795C234.395 317.795 238.348 321.748 238.348 326.623V335.451C238.348 340.326 234.395 344.275 229.52 344.275V344.275Z" fill="#F18D46"/>
<path d="M282.484 344.275C277.609 344.275 273.656 340.326 273.656 335.451V326.623C273.656 321.748 277.609 317.795 282.484 317.795C287.359 317.795 291.312 321.748 291.312 326.623V335.451C291.312 340.326 287.359 344.275 282.484 344.275V344.275Z" fill="#F18D46"/>
<path d="M256 432.552C251.125 432.552 247.176 428.599 247.176 423.724V388.415C247.176 383.54 251.125 379.587 256 379.587C260.879 379.587 264.828 383.54 264.828 388.415V423.724C264.828 428.599 260.879 432.552 256 432.552V432.552Z" fill="#F18D46"/>
<path d="M229.52 432.552C224.645 432.552 220.691 428.599 220.691 423.724V414.896C220.691 410.021 224.645 406.071 229.52 406.071C234.395 406.071 238.348 410.021 238.348 414.896V423.724C238.348 428.599 234.395 432.552 229.52 432.552V432.552Z" fill="#F18D46"/>
<path d="M282.484 432.552C277.609 432.552 273.656 428.599 273.656 423.724V414.896C273.656 410.021 277.609 406.071 282.484 406.071C287.359 406.071 291.312 410.021 291.312 414.896V423.724C291.312 428.599 287.359 432.552 282.484 432.552V432.552Z" fill="#F18D46"/>
</g>
<defs>
<clipPath id="clip0">
<rect width="512" height="512" fill="white"/>
</clipPath>
</defs>
</svg>
