<svg width="512" height="512" viewBox="0 0 512 512" fill="none" xmlns="http://www.w3.org/2000/svg">
<g clip-path="url(#clip0)">
<path d="M238.345 194.207C233.47 194.207 229.518 190.255 229.518 185.379V123.586C229.518 118.711 233.47 114.759 238.345 114.759C243.221 114.759 247.173 118.711 247.173 123.586V185.379C247.173 190.255 243.221 194.207 238.345 194.207Z" fill="#B19046"/>
<path d="M273.656 194.207C268.78 194.207 264.828 190.255 264.828 185.379V123.586C264.828 118.711 268.78 114.759 273.656 114.759C278.531 114.759 282.483 118.711 282.483 123.586V185.379C282.483 190.255 278.531 194.207 273.656 194.207Z" fill="#B19046"/>
<path d="M326.092 256L335.449 150.069L353.104 132.414L370.759 150.069L380.117 256L353.104 273.655L326.092 256Z" fill="#C03A2B"/>
<path d="M185.997 256L176.551 150.069L158.896 132.414L141.241 150.069L131.884 256L158.896 273.655L185.997 256Z" fill="#C03A2B"/>
<path d="M185.38 97.1035V141.241C185.38 146.117 181.427 150.069 176.552 150.069H141.242C136.366 150.069 132.414 146.117 132.414 141.241V109.197L185.38 97.1035Z" fill="#802F34"/>
<path d="M379.587 109.197V141.241C379.587 146.117 375.634 150.069 370.759 150.069H335.449C330.573 150.069 326.621 146.117 326.621 141.241V97.1035L379.587 109.197Z" fill="#802F34"/>
<path d="M128.441 291.31L114.758 450.207L158.896 467.862L203.034 450.207L189.351 291.31L158.896 273.655L128.441 291.31Z" fill="#C03A2B"/>
<path d="M383.558 291.31L397.241 450.207L353.103 467.862L308.965 450.207L322.648 291.31L353.103 273.655L383.558 291.31Z" fill="#C03A2B"/>
<path d="M406.069 76.5352L396.358 102.488C395.759 104.172 394.375 105.458 392.651 105.931C347.826 116.485 302.035 122.402 256 123.586C209.963 122.422 164.169 116.506 119.349 105.931C117.625 105.458 116.24 104.172 115.641 102.488L105.931 76.5352H406.069Z" fill="#C03A2B"/>
<path d="M211.862 450.207H105.931C101.056 450.207 97.1035 454.159 97.1035 459.035V503.173C97.1035 508.048 101.056 512 105.931 512H211.862C216.737 512 220.69 508.048 220.69 503.173V459.035C220.69 454.159 216.737 450.207 211.862 450.207Z" fill="#464F5D"/>
<path d="M406.069 450.207H300.138C295.263 450.207 291.311 454.159 291.311 459.035V503.173C291.311 508.048 295.263 512 300.138 512H406.069C410.945 512 414.897 508.048 414.897 503.173V459.035C414.897 454.159 410.945 450.207 406.069 450.207Z" fill="#464F5D"/>
<path d="M450.207 256H61.7934C56.9181 256 52.9658 259.952 52.9658 264.828V282.483C52.9658 287.358 56.9181 291.31 61.7934 291.31H450.207C455.083 291.31 459.035 287.358 459.035 282.483V264.828C459.035 259.952 455.083 256 450.207 256Z" fill="#E64C3C"/>
<path d="M282.483 185.379C282.483 200.005 270.626 211.862 256 211.862C241.374 211.862 229.518 200.005 229.518 185.379C229.518 170.753 241.374 158.896 256 158.896C270.626 158.896 282.483 170.753 282.483 185.379Z" fill="#F3D55B"/>
<path d="M461.948 38.8418L448.618 67.1783C447.53 69.0107 445.689 70.2703 443.587 70.6211L417.104 75.0349C363.766 83.1091 309.94 87.5332 256 88.2763C193.115 87.1374 130.407 81.2355 68.4141 70.6211C66.3024 70.2939 64.4524 69.0281 63.3824 67.1783L50.0527 38.8418H461.948Z" fill="#E64C3C"/>
<path d="M510.146 14.1241C491.343 34.4276 491.785 34.7807 487.459 35.3103C410.746 45.9793 333.444 51.8757 256 52.9655C178.558 51.8196 101.26 45.9235 24.5406 35.3103C22.0593 35.0982 19.7831 33.8479 18.273 31.8676L1.85371 14.2124C-0.393168 11.3743 -0.679667 7.45208 1.13094 4.31758C2.94155 1.18309 6.48228 -0.528363 10.0634 -1.13789e-05C150.405 20.3517 292.72 23.3166 433.788 8.82757L501.583 -1.13789e-05C505.194 -0.671847 508.843 0.9618 510.747 4.1022C512.651 7.24261 512.412 11.2337 510.146 14.1241V14.1241Z" fill="#464F5D"/>
</g>
<defs>
<clipPath id="clip0">
<rect width="512" height="512" fill="white"/>
</clipPath>
</defs>
</svg>
