<svg width="512" height="512" viewBox="0 0 512 512" fill="none" xmlns="http://www.w3.org/2000/svg">
<path d="M408.66 281.371C406.48 243.344 399.457 205.75 387.754 169.5C380.465 146.785 371.094 124.789 359.766 103.793C357.207 99.1016 354.73 94.6641 352.086 90.3125C336.793 63.8242 317.441 39.8984 294.742 19.3984C272.48 0.199219 239.519 0.199219 217.258 19.3984C194.558 39.8984 175.207 63.8242 159.914 90.3125C152.406 102.898 145.652 115.922 139.691 129.309C131.621 147.336 124.891 165.934 119.551 184.945C108.766 223.32 103.027 262.934 102.484 302.793C102.398 305.863 102.398 309.02 102.398 312.18C102.324 336.391 103.723 360.582 106.582 384.625C110.543 424.648 121.488 463.668 138.922 499.91H373.078C374.101 497.949 375.039 495.902 376.062 493.852C391.574 459.383 401.457 422.652 405.332 385.055C408.269 360.875 409.691 336.535 409.601 312.18C409.601 301.684 409.258 291.355 408.66 281.371V281.371Z" fill="#B0D3F0"/>
<path d="M405.332 385.055C401.457 422.652 391.574 459.383 376.062 493.852C369.406 475.078 360.703 452.297 350.039 428.23V428.145L397.484 363.633C400.383 370.973 402.945 378.141 405.332 385.055V385.055Z" fill="#B0D3F0"/>
<path d="M397.484 363.633L350.039 428.145C340.766 407.148 330.367 386.668 318.891 366.793L367.445 300.828C379.246 320.859 389.297 341.875 397.484 363.633Z" fill="#90BAE1"/>
<path d="M387.754 169.5L355.07 213.875C350.719 209.691 346.113 205.426 341.332 201.246C330.426 191.691 320.191 181.398 310.699 170.441L359.766 103.793C371.094 124.789 380.465 146.785 387.754 169.5V169.5Z" fill="#B0D3F0"/>
<path d="M408.66 281.371C393.77 256.664 375.762 233.98 355.07 213.875L387.754 169.5C399.457 205.75 406.48 243.344 408.66 281.371V281.371Z" fill="#90BAE1"/>
<path d="M212.137 106.184L164.266 171.207C154.199 155.078 145.836 140.488 139.691 129.309C145.652 115.922 152.406 102.898 159.914 90.3125H204.031C206.25 94.918 208.98 100.211 212.137 106.184Z" fill="#B0D3F0"/>
<path d="M159.914 90.3125C175.207 63.8242 194.559 39.8984 217.258 19.3984C239.52 0.199219 272.48 0.199219 294.742 19.3984C317.441 39.8984 336.793 63.8242 352.086 90.3125H159.914Z" fill="#285680"/>
<path d="M245.164 158.836L198.656 222.066C185.855 204.742 174.25 187.164 164.266 171.207L212.137 106.184C221.918 124.477 232.953 142.066 245.164 158.836Z" fill="#90BAE1"/>
<path d="M367.445 300.828L318.891 366.793C308.062 347.973 295.703 330.078 281.941 313.289L329.387 248.777C343.707 264.871 356.449 282.301 367.445 300.828V300.828Z" fill="#B0D3F0"/>
<path d="M376.062 493.852C375.039 495.902 374.102 497.949 373.078 499.91H329.387C326.145 490.953 322.391 481.309 318.293 471.238V471.156C310.102 451.016 300.375 429 289.023 407.238C278.941 387.465 267.449 368.445 254.633 350.324C242.711 333.227 228.852 317.562 213.332 303.645C213.164 303.559 213.078 303.391 212.906 303.305C197.871 289.754 184 274.969 171.434 259.102C152.578 235.516 135.246 210.746 119.551 184.945C124.891 165.934 131.621 147.336 139.691 129.309C145.836 140.488 154.199 155.078 164.266 171.207C174.25 187.164 185.855 204.742 198.656 222.066C210.707 238.652 223.848 254.418 237.996 269.254C243.883 275.398 249.941 281.289 256 286.578C265.324 294.797 273.996 303.727 281.941 313.289C295.703 330.078 308.062 347.973 318.891 366.793C330.367 386.668 340.766 407.148 350.039 428.145V428.23C360.703 452.297 369.406 475.078 376.062 493.852V493.852Z" fill="#285680"/>
<path d="M171.434 259.102L119.637 329.5C113.152 320.199 107.434 311.156 102.484 302.793C103.027 262.934 108.766 223.32 119.551 184.945C135.246 210.746 152.578 235.516 171.434 259.102V259.102Z" fill="#B0D3F0"/>
<path d="M329.387 499.91H258.988C254.039 490.27 248.492 480.543 242.262 470.812L289.023 407.238C300.375 429 310.102 451.016 318.293 471.156V471.238C322.391 481.309 326.145 490.953 329.387 499.91V499.91Z" fill="#B0D3F0"/>
<path d="M258.988 499.91H206.933C198.035 484.57 187.933 469.961 176.726 456.223C164.519 441.238 151.074 427.309 136.535 414.578C125.918 405.246 115.914 395.238 106.582 384.625C103.723 360.582 102.324 336.391 102.398 312.18C102.398 309.02 102.398 305.863 102.484 302.793C107.433 311.156 113.152 320.199 119.637 329.5C131.266 346.484 144.219 362.52 158.379 377.457C164.863 384.371 171.863 391.113 179.199 397.512C187.523 404.777 195.473 412.469 203.008 420.551C217.683 436 230.828 452.832 242.262 470.812C248.492 480.543 254.039 490.27 258.988 499.91V499.91Z" fill="#285680"/>
<path d="M206.934 499.91H144.555L176.727 456.223C187.934 469.961 198.035 484.57 206.934 499.91Z" fill="#B0D3F0"/>
<path d="M176.727 456.223L144.555 499.91H138.922C121.488 463.668 110.543 424.648 106.582 384.625C115.914 395.238 125.918 405.246 136.535 414.578C151.074 427.309 164.52 441.238 176.727 456.223V456.223Z" fill="#90BAE1"/>
<path d="M359.766 103.793L310.699 170.441C289.402 145.844 270.887 118.973 255.488 90.3125H352.086C354.73 94.6641 357.207 99.1016 359.766 103.793V103.793Z" fill="#90BAE1"/>
<path d="M409.602 312.18C409.691 336.535 408.27 360.875 405.332 385.055C402.945 378.141 400.383 370.973 397.484 363.633C389.297 341.875 379.246 320.859 367.445 300.828C356.449 282.301 343.707 264.871 329.387 248.777C319.793 237.988 309.531 227.816 298.668 218.312C293.887 214.129 289.367 209.863 284.93 205.426C270.367 191.059 257.063 175.473 245.164 158.836C232.953 142.066 221.918 124.477 212.137 106.184C208.98 100.211 206.25 94.918 204.031 90.3125H255.488C270.887 118.973 289.402 145.844 310.699 170.441C320.191 181.398 330.426 191.691 341.332 201.246C346.113 205.426 350.719 209.691 355.07 213.875C375.762 233.98 393.77 256.664 408.66 281.371C409.258 291.355 409.602 301.684 409.602 312.18V312.18Z" fill="#285680"/>
<path d="M254.633 350.324L203.008 420.551C195.473 412.469 187.523 404.777 179.199 397.512C171.863 391.113 164.863 384.371 158.379 377.457L212.906 303.305C213.078 303.391 213.164 303.559 213.332 303.645C228.852 317.562 242.711 333.227 254.633 350.324Z" fill="#B0D3F0"/>
<path d="M284.93 205.426L237.996 269.254C223.848 254.418 210.707 238.652 198.656 222.066L245.164 158.836C257.063 175.473 270.367 191.059 284.93 205.426V205.426Z" fill="#B0D3F0"/>
<path d="M212.906 303.305L158.379 377.457C144.219 362.52 131.266 346.484 119.637 329.5L171.434 259.102C184 274.969 197.871 289.754 212.906 303.305Z" fill="#90BAE1"/>
<path d="M329.387 248.777L281.941 313.289C273.996 303.727 265.324 294.797 256 286.578C249.941 281.289 243.883 275.398 237.996 269.254L284.93 205.426C289.367 209.863 293.887 214.129 298.668 218.312C309.531 227.816 319.793 237.988 329.387 248.777V248.777Z" fill="#90BAE1"/>
<path d="M289.023 407.238L242.262 470.812C230.828 452.832 217.684 436 203.008 420.551L254.633 350.324C267.449 368.445 278.941 387.465 289.023 407.238V407.238Z" fill="#90BAE1"/>
</svg>
