<svg width="512" height="512" viewBox="0 0 512 512" fill="none" xmlns="http://www.w3.org/2000/svg">
<path d="M423.816 300.59L354.078 347.188C353.109 303.758 349.84 262.621 347.457 237.461L371.09 221.668C374.984 219.07 379.754 218.121 384.344 219.039C388.938 219.953 392.977 222.656 395.578 226.551L428.691 276.102C434.105 284.207 431.926 295.172 423.816 300.59V300.59Z" fill="#65DDB9"/>
<path d="M354.098 347.188C353.125 303.758 349.859 262.621 347.477 237.461C347.211 234.727 346.945 232.078 346.68 229.695C345.621 218.746 344.828 212.391 344.828 212.391C341.668 197.492 331.113 185.238 316.844 179.906C311.629 177.547 306.227 175.629 300.691 174.168V133.121C312.172 124.777 318.781 111.289 318.344 97.1016C318.34 90.8242 317.293 84.5898 315.254 78.6523L329.238 55.3945C330.219 53.7656 330.051 51.6953 328.82 50.25C327.586 48.8047 325.57 48.3086 323.809 49.0195L302.719 57.4688C298.484 52.8594 293.305 49.2188 287.535 46.7852L278.453 14.9023C277.914 13.0039 276.18 11.6914 274.207 11.6914C272.234 11.6914 270.5 13.0039 269.961 14.9023L260.879 46.7852C255.125 49.1953 249.969 52.8438 245.781 57.4688L224.598 49C222.836 48.2969 220.824 48.7969 219.598 50.2422C218.367 51.6836 218.199 53.75 219.176 55.375L233.16 78.6523C231.121 84.5898 230.074 90.8242 230.07 97.1016C229.629 111.289 236.242 124.777 247.723 133.121V150.246C247.703 159.754 240.172 167.551 230.668 167.902C225.867 168.078 222.484 168.254 221.242 168.254C211.941 168.152 202.836 165.594 194.848 160.84C166.332 144.242 150.621 105.93 150.621 105.93H115.309C115.309 105.93 147.797 149.449 141.793 185.379C137.324 208.406 142.844 232.246 156.977 250.969C165.008 262.09 173.836 269.328 177.102 273.656C180.836 278.754 183.426 284.594 184.695 290.781C170.219 299.52 159.449 308.082 159.449 317.793C159.297 324.863 162.039 331.687 167.039 336.684C172.039 341.684 178.863 344.426 185.93 344.277C186.203 343.25 186.559 342.246 186.992 341.273C185.93 364.844 183.637 392.387 184.43 422.84C184.789 440.887 186.441 458.883 189.375 476.691H345.094C351.512 445.594 354.59 413.898 354.273 382.145C354.449 370.492 354.363 358.754 354.098 347.188V347.188Z" fill="#65DDB9"/>
<path d="M106.484 35.3086C106.484 35.3086 111.629 8.82812 132.965 0C132.965 0 159.449 17.6562 159.449 35.3086H106.484Z" fill="#F29C1F"/>
<path d="M115.309 35.3086H150.621V70.6211H115.309V35.3086Z" fill="#65DDB9"/>
<path d="M316.844 179.906C297.16 193.234 267.852 215.746 256.551 238.344C245.43 260.68 209.59 275.949 184.695 290.781C183.426 284.594 180.836 278.754 177.102 273.656C173.836 269.328 165.008 262.09 156.977 250.969C186.902 226.34 193.609 185.113 194.848 160.84C202.836 165.594 211.941 168.152 221.242 168.254C222.477 168.254 225.832 168.078 230.598 167.902C240.141 167.613 247.727 159.793 247.723 150.246V133.121C263.719 143.949 284.695 143.949 300.691 133.121V174.168C306.227 175.629 311.629 177.547 316.844 179.906Z" fill="#46B29D"/>
<path d="M346.68 229.695C325.32 266.328 286.477 308.965 247.723 308.965C204.645 308.965 190.785 332.27 187.078 341.008C187.078 341.098 186.992 341.187 186.992 341.273C186.559 342.246 186.203 343.25 185.93 344.277C178.863 344.426 172.039 341.684 167.039 336.684C162.039 331.687 159.297 324.863 159.449 317.793C159.449 308.082 170.219 299.52 184.695 290.781C209.59 275.949 245.43 260.68 256.551 238.344C267.852 215.746 297.16 193.234 316.844 179.906C331.113 185.238 341.668 197.492 344.828 212.391C344.828 212.391 345.621 218.746 346.68 229.695V229.695Z" fill="#65DDB9"/>
<path d="M354.274 382.145C336.352 371.023 318.344 354.516 318.344 335.449C318.344 300.137 274.207 344.277 274.207 370.758C274.207 394.504 210.383 418.25 184.43 422.84C183.637 392.387 185.93 364.844 186.993 341.273C186.993 341.187 187.079 341.098 187.079 341.008C190.786 332.27 204.645 308.965 247.723 308.965C286.477 308.965 325.321 266.328 346.68 229.695C346.946 232.078 347.211 234.727 347.477 237.461C349.86 262.621 353.125 303.758 354.098 347.188C354.364 358.754 354.45 370.492 354.274 382.145V382.145Z" fill="#46B29D"/>
<path d="M354.273 382.145C354.59 413.899 351.512 445.594 345.094 476.692H189.375C186.441 458.883 184.789 440.887 184.43 422.84C210.383 418.25 274.207 394.504 274.207 370.758C274.207 344.278 318.344 300.137 318.344 335.45C318.344 354.516 336.352 371.024 354.273 382.145Z" fill="#65DDB9"/>
<path d="M194.848 160.84C193.609 185.113 186.902 226.34 156.977 250.969C142.844 232.246 137.324 208.406 141.793 185.379C147.797 149.449 115.309 105.93 115.309 105.93H150.621C150.621 105.93 166.332 144.242 194.848 160.84Z" fill="#65DDB9"/>
<path d="M315.254 78.6523C317.293 84.5898 318.34 90.8242 318.344 97.1016C318.344 97.1016 309.516 79.4492 274.207 79.4492C238.898 79.4492 230.07 97.1016 230.07 97.1016C230.074 90.8242 231.121 84.5898 233.16 78.6523L219.168 55.375C218.191 53.75 218.359 51.6836 219.586 50.2422C220.816 48.7969 222.828 48.2969 224.586 49L245.773 57.4688C249.965 52.8438 255.121 49.1953 260.879 46.7852L269.961 14.9023C270.5 13.0039 272.234 11.6914 274.207 11.6914C276.18 11.6914 277.914 13.0039 278.453 14.9023L287.535 46.7852C293.305 49.2188 298.484 52.8594 302.719 57.4688L323.809 49.0195C325.57 48.3086 327.586 48.8047 328.82 50.25C330.051 51.6953 330.219 53.7656 329.238 55.3945L315.254 78.6523Z" fill="#46B29D"/>
<path d="M318.344 97.1016C318.782 111.289 312.172 124.777 300.692 133.121C284.696 143.949 263.719 143.949 247.723 133.121C236.242 124.777 229.629 111.289 230.071 97.1016C230.071 97.1016 238.899 79.4492 274.207 79.4492C309.516 79.4492 318.344 97.1016 318.344 97.1016Z" fill="#65DDB9"/>
<path d="M380.137 503.172C380.137 508.047 376.187 512 371.309 512H159.449C154.574 512 150.621 508.047 150.621 503.172C150.621 488.547 162.477 476.691 177.102 476.691H353.656C368.281 476.691 380.137 488.547 380.137 503.172V503.172Z" fill="#CBB292"/>
<path d="M115.309 70.6211H150.621C160.371 70.6211 168.277 78.5234 168.277 88.2773C168.277 98.0273 160.371 105.93 150.621 105.93H115.309C105.559 105.93 97.6562 98.0273 97.6562 88.2773C97.6562 78.5234 105.559 70.6211 115.309 70.6211Z" fill="#46B29D"/>
<path d="M177.102 44.1367H88.8281C83.9531 44.1367 80 40.1875 80 35.3086C80 30.4336 83.9531 26.4844 88.8281 26.4844H177.102C181.98 26.4844 185.93 30.4336 185.93 35.3086C185.93 40.1875 181.98 44.1367 177.102 44.1367Z" fill="#46B29D"/>
</svg>
