<svg width="512" height="512" viewBox="0 0 512 512" fill="none" xmlns="http://www.w3.org/2000/svg">
<path d="M401.324 114.82L387.242 198.961L356.352 384.133L336.98 499.93H129.281L154.281 350.426L169.812 257.84L185.258 165.254L199.34 81.1133L401.324 114.82Z" fill="#E6E7E8"/>
<path d="M370.348 299.996L357.719 375.77L155.734 341.977L168.363 266.289L370.348 299.996Z" fill="#A5A5A4"/>
<path d="M385.793 207.406L373.164 283.184L171.266 249.391L183.809 173.699L385.793 207.406Z" fill="#E6E7E8"/>
<path d="M186.707 156.816L197.973 89.4844L399.871 123.258L388.609 190.59L186.707 156.816Z" fill="#A5A5A4"/>
<path d="M263.855 5.35551L364.855 22.2266C378.801 24.5547 388.215 37.75 385.887 51.6954L376.043 110.613L224.543 85.3008L234.387 26.3868C236.715 12.4414 249.91 3.02348 263.855 5.35551V5.35551Z" fill="#E6E7E8"/>
<path d="M230.059 414.937L215.809 499.93H181.164L196.352 409.391C197.344 403.371 201.469 398.336 207.18 396.184C212.891 394.031 219.316 395.086 224.035 398.957C228.754 402.824 231.051 408.918 230.059 414.937Z" fill="#5E5F62"/>
<path d="M297.387 426.203L285.098 499.93H250.453L263.68 420.57C265.234 411.262 274.043 404.976 283.348 406.531C292.656 408.09 298.941 416.894 297.387 426.203Z" fill="#5E5F62"/>
<path d="M187.981 364.574C187.508 364.574 187.031 364.531 186.563 364.457C181.918 363.676 178.781 359.281 179.559 354.633L189.399 295.754C189.899 292.746 191.965 290.234 194.82 289.164C197.676 288.094 200.887 288.629 203.238 290.57C205.594 292.508 206.734 295.554 206.234 298.562L196.395 357.441C195.711 361.554 192.152 364.574 187.981 364.574Z" fill="#5E5F62"/>
<path d="M221.652 370.222C221.179 370.222 220.703 370.183 220.238 370.105C218.004 369.73 216.011 368.488 214.695 366.644C213.379 364.804 212.851 362.515 213.222 360.281L223.07 301.402C223.496 298.328 225.558 295.726 228.457 294.613C231.355 293.496 234.629 294.043 237.008 296.039C239.383 298.035 240.492 301.164 239.898 304.211L230.058 363.089C229.375 367.203 225.82 370.218 221.652 370.222Z" fill="#5E5F62"/>
<path d="M255.316 375.82C254.844 375.824 254.367 375.785 253.902 375.703C249.258 374.922 246.125 370.531 246.895 365.891L256.734 306.965C257.234 303.957 259.305 301.445 262.16 300.379C265.016 299.309 268.223 299.844 270.578 301.781C272.93 303.719 274.07 306.766 273.57 309.773L263.723 368.695C263.035 372.805 259.484 375.816 255.316 375.82V375.82Z" fill="#5E5F62"/>
<path d="M288.981 381.446C288.508 381.442 288.039 381.399 287.574 381.317C282.926 380.539 279.793 376.141 280.567 371.496L290.406 312.575C291.442 308.2 295.692 305.379 300.125 306.125C304.559 306.871 307.652 310.926 307.199 315.399L297.395 374.321C296.707 378.43 293.149 381.446 288.981 381.446Z" fill="#5E5F62"/>
<path d="M322.652 387.07C322.179 387.07 321.707 387.031 321.238 386.957C319.004 386.586 317.011 385.34 315.695 383.5C314.379 381.656 313.851 379.367 314.222 377.137L324.07 318.254C324.496 315.18 326.562 312.582 329.457 311.465C332.355 310.351 335.629 310.898 338.008 312.891C340.386 314.887 341.492 318.016 340.898 321.062L331.058 379.941C330.371 384.051 326.82 387.062 322.652 387.07V387.07Z" fill="#5E5F62"/>
<path d="M203.453 271.988C202.976 271.992 202.504 271.949 202.035 271.867C197.39 271.093 194.25 266.703 195.019 262.054L204.867 203.175C205.297 200.101 207.359 197.5 210.254 196.386C213.152 195.269 216.426 195.816 218.804 197.812C221.183 199.808 222.289 202.937 221.695 205.984L211.855 264.906C211.152 268.996 207.601 271.984 203.453 271.988Z" fill="#5E5F62"/>
<path d="M237.117 277.613C236.641 277.613 236.168 277.574 235.699 277.5C231.055 276.723 227.918 272.324 228.691 267.68L238.531 208.758C239.309 204.106 243.711 200.969 248.359 201.746C253.008 202.524 256.145 206.922 255.367 211.57L245.52 270.453C244.848 274.574 241.293 277.602 237.117 277.613Z" fill="#5E5F62"/>
<path d="M270.781 283.234C270.305 283.234 269.832 283.199 269.363 283.125C264.719 282.344 261.582 277.949 262.355 273.301L272.195 214.422C272.973 209.773 277.367 206.633 282.02 207.406C286.668 208.183 289.809 212.582 289.031 217.23L279.195 276.109C278.504 280.223 274.949 283.234 270.781 283.234V283.234Z" fill="#5E5F62"/>
<path d="M304.453 288.867C303.977 288.867 303.504 288.824 303.035 288.746C300.801 288.375 298.805 287.129 297.492 285.285C296.176 283.441 295.645 281.152 296.02 278.918L305.867 220.035C306.297 216.961 308.36 214.363 311.258 213.246C314.153 212.133 317.426 212.68 319.805 214.672C322.184 216.668 323.289 219.797 322.696 222.844L312.86 281.723C312.18 285.84 308.621 288.859 304.453 288.867Z" fill="#5E5F62"/>
<path d="M338.117 294.492C337.641 294.488 337.168 294.449 336.699 294.371C332.055 293.594 328.918 289.195 329.695 284.551L339.531 225.668C340.309 221.02 344.707 217.879 349.356 218.656C354.004 219.43 357.145 223.828 356.367 228.477L346.524 287.355C345.84 291.469 342.285 294.484 338.117 294.492Z" fill="#5E5F62"/>
<path d="M218.914 179.402C218.442 179.402 217.965 179.363 217.496 179.289C212.852 178.512 209.715 174.113 210.492 169.469L218.922 118.969C219.699 114.32 224.094 111.18 228.746 111.953C233.395 112.73 236.535 117.125 235.758 121.777L227.328 172.25C226.652 176.371 223.09 179.398 218.914 179.402Z" fill="#5E5F62"/>
<path d="M252.586 185.05C252.114 185.047 251.637 185.007 251.172 184.929C248.938 184.558 246.946 183.316 245.629 181.472C244.313 179.632 243.782 177.339 244.157 175.109L252.594 124.609C253.024 121.535 255.086 118.933 257.985 117.82C260.879 116.703 264.153 117.25 266.532 119.246C268.91 121.242 270.016 124.371 269.422 127.418L260.992 177.918C260.309 182.027 256.754 185.043 252.586 185.05Z" fill="#5E5F62"/>
<path d="M286.25 190.656C285.777 190.656 285.301 190.613 284.836 190.539C280.188 189.758 277.051 185.363 277.828 180.715L286.258 130.215C287.09 125.629 291.449 122.558 296.047 123.32C300.645 124.078 303.781 128.386 303.094 132.996L294.656 183.496C293.984 187.617 290.426 190.648 286.25 190.656Z" fill="#5E5F62"/>
<path d="M319.914 196.281C319.441 196.281 318.965 196.242 318.5 196.16C313.852 195.383 310.715 190.984 311.492 186.34L319.922 135.84C320.699 131.188 325.102 128.051 329.75 128.828C334.399 129.606 337.535 134.004 336.758 138.656L328.328 189.156C327.641 193.266 324.082 196.277 319.914 196.281Z" fill="#5E5F62"/>
<path d="M353.586 201.902C353.113 201.906 352.64 201.867 352.172 201.793C349.937 201.422 347.945 200.176 346.629 198.336C345.312 196.492 344.785 194.203 345.156 191.973L353.597 141.461C354.023 138.387 356.086 135.789 358.984 134.672C361.879 133.559 365.152 134.105 367.531 136.098C369.91 138.094 371.019 141.223 370.422 144.269L361.992 194.777C361.304 198.887 357.754 201.898 353.586 201.902V201.902Z" fill="#5E5F62"/>
<path d="M266.641 100.859C266.168 100.863 265.692 100.824 265.223 100.75C260.578 99.9726 257.442 95.5742 258.219 90.9257L266.649 40.4257C267.152 37.4218 269.219 34.9101 272.074 33.8398C274.93 32.7695 278.137 33.3046 280.492 35.2421C282.848 37.1796 283.988 40.2265 283.484 43.2343L275.047 93.7421C274.356 97.8476 270.805 100.855 266.641 100.859V100.859Z" fill="#5E5F62"/>
<path d="M300.305 106.492C299.832 106.488 299.356 106.449 298.887 106.375C294.242 105.594 291.106 101.199 291.883 96.5509L300.313 46.0509C300.816 43.0431 302.883 40.5314 305.738 39.461C308.594 38.3946 311.801 38.9298 314.156 40.8673C316.512 42.8048 317.652 45.8517 317.149 48.8595L308.719 99.3595C308.035 103.473 304.477 106.492 300.305 106.492V106.492Z" fill="#5E5F62"/>
<path d="M333.976 112.117C333.504 112.113 333.027 112.074 332.562 111.996C330.328 111.625 328.336 110.379 327.019 108.539C325.703 106.695 325.176 104.406 325.547 102.176L333.984 51.6756C334.414 48.6013 336.476 45.9998 339.375 44.8826C342.269 43.7693 345.543 44.3162 347.922 46.3123C350.301 48.3045 351.406 51.4334 350.812 54.4802L342.383 104.98C341.699 109.094 338.144 112.109 333.976 112.117Z" fill="#5E5F62"/>
<path d="M373.152 395.508C372.68 395.508 372.207 395.465 371.738 395.387L136.063 356.023C131.414 355.246 128.277 350.848 129.055 346.199C129.832 341.551 134.231 338.41 138.879 339.187L374.555 378.551C378.949 379.266 382.055 383.238 381.688 387.676C381.32 392.113 377.606 395.523 373.152 395.508V395.508Z" fill="#A5A5A4"/>
<path d="M418.133 126.172C417.66 126.172 417.184 126.133 416.719 126.059L181.059 86.6876C176.41 85.9102 173.274 81.5079 174.051 76.8595C174.828 72.211 179.227 69.0743 183.875 69.8517L419.543 109.223C423.914 109.961 426.988 113.926 426.621 118.344C426.254 122.762 422.566 126.164 418.133 126.172V126.172Z" fill="#A5A5A4"/>
<path d="M404.086 210.336C403.613 210.336 403.141 210.297 402.672 210.223L166.996 170.852C162.348 170.074 159.211 165.676 159.988 161.024C160.766 156.375 165.164 153.238 169.813 154.016L405.488 193.387C409.856 194.125 412.934 198.086 412.57 202.504C412.203 206.922 408.52 210.324 404.086 210.336Z" fill="#A5A5A4"/>
<path d="M388.617 302.922C388.141 302.922 387.668 302.883 387.199 302.801L151.535 263.438C146.887 262.66 143.746 258.262 144.523 253.613C145.301 248.961 149.703 245.824 154.352 246.602L390.016 285.973C394.387 286.715 397.461 290.672 397.098 295.09C396.734 299.508 393.047 302.91 388.617 302.922Z" fill="#A5A5A4"/>
</svg>
