<svg width="335" height="306" viewBox="0 0 335 306" fill="none" xmlns="http://www.w3.org/2000/svg">
<path d="M187.162 120.552L120.242 102.621L72.5252 68.6979C68.9453 66.1531 69.2011 60.7575 73.0046 58.5617L90.8207 48.2754C94.005 46.437 97.7894 45.9386 101.341 46.8906L180.183 68.016" fill="#97BDEE"/>
<path d="M144.052 97.9594L100.805 67.9319C98.632 66.4234 95.7836 66.3045 93.4928 67.6271L81.0908 74.7876L131.777 110.831L143.804 103.887C146.035 102.599 146.167 99.4284 144.052 97.9594Z" fill="#C3DDFF"/>
<path d="M332.157 35.8013C337.82 46.1258 333.863 59.1194 323.665 65.0075L117.569 183.997C98.7768 194.847 74.791 189.3 62.6765 171.295L54.0129 158.42L29.001 121.266L45.7718 111.583C49.3936 109.492 53.8246 109.369 57.5564 111.256L82.998 124.118L253.258 25.8186C264.696 19.2151 278.606 18.4949 290.664 23.8828L300.864 28.4399L302.499 27.4962C307.652 24.5211 313.519 23.9181 318.838 25.3429C324.309 26.8089 329.203 30.4152 332.157 35.8013Z" fill="#C3DDFF"/>
<path d="M316.457 51.6752L205.208 115.905L146.332 149.897L119.808 165.21L109.994 170.876C91.2011 181.726 67.2153 176.179 55.1008 158.175L29.9049 120.743L29 121.264L62.6761 171.294C74.7906 189.298 98.7764 194.845 117.569 183.995L127.383 178.329L153.908 163.015L212.783 129.023L324.033 64.7931C334.333 58.8464 337.866 45.6777 331.92 35.3777C330.586 33.0677 328.887 31.102 326.942 29.5039C328.362 38.1006 324.448 47.0613 316.457 51.6752Z" fill="#97BDEE"/>
<path d="M300.864 28.4401L279.557 40.7416C272.236 44.9688 262.866 42.4581 258.638 35.1362L253.259 25.8187C257.332 23.467 261.721 21.8605 266.226 21.0154C274.369 19.48 282.898 20.4111 290.665 23.8829L300.864 28.4401Z" fill="#E6E6E6"/>
<path d="M300.864 28.4397L291.362 33.9256C284.041 38.1528 274.67 35.642 270.443 28.3202L266.226 21.0144C274.368 19.479 282.897 20.4102 290.664 23.882L300.864 28.4397Z" fill="#F2F2F2"/>
<path d="M220.252 101.155L192.49 204.766C191.538 208.317 189.214 211.345 186.03 213.184L168.215 223.47C164.411 225.666 159.611 223.189 159.197 218.817L151.084 133.237" fill="#C3DDFF"/>
<path d="M109.582 142.962C105.969 145.048 101.539 141.483 102.786 137.516C104.04 133.526 109.771 133.145 111.501 136.987C112.473 139.145 111.637 141.776 109.582 142.962Z" fill="white"/>
<path d="M215.717 76.2905C214.427 74.0571 215.188 71.2003 217.427 69.9076C219.661 68.6178 222.52 69.384 223.81 71.6175C225.1 73.8509 224.334 76.7107 222.1 78.0004C219.861 79.2938 217.007 78.524 215.717 76.2905ZM199.638 85.5727C198.349 83.3393 199.115 80.4795 201.354 79.1868C203.588 77.897 206.448 78.6632 207.737 80.8967C209.027 83.1301 208.261 85.9899 206.027 87.2796C203.787 88.5736 200.929 87.8074 199.638 85.5727ZM183.566 94.8537C182.276 92.6203 183.042 89.7605 185.276 88.4708C187.514 87.1781 190.374 87.9442 191.664 90.1777C192.954 92.4111 192.187 95.2709 189.948 96.5636C187.715 97.8534 184.855 97.0872 183.566 94.8537ZM167.492 104.134C166.203 101.9 166.969 99.0403 169.202 97.7506C171.442 96.4579 174.295 97.227 175.585 99.4605C176.875 101.694 176.114 104.551 173.875 105.843C171.641 107.133 168.782 106.367 167.492 104.134ZM151.42 113.413C150.13 111.18 150.896 108.32 153.129 107.03C155.363 105.741 158.223 106.507 159.512 108.74C160.802 110.974 160.036 113.834 157.803 115.123C155.568 116.413 152.709 115.647 151.42 113.413ZM135.346 122.693C134.056 120.46 134.823 117.6 137.056 116.31C139.29 115.02 142.149 115.787 143.439 118.02C144.729 120.254 143.963 123.113 141.729 124.403C139.496 125.693 136.636 124.927 135.346 122.693ZM119.273 131.973C117.983 129.74 118.749 126.88 120.983 125.59C123.216 124.3 126.076 125.066 127.366 127.3C128.655 129.533 127.889 132.393 125.656 133.683C123.422 134.973 120.563 134.206 119.273 131.973Z" fill="white"/>
<path d="M238.172 68.721C234.543 70.8164 230.051 67.1946 231.402 63.1885C232.005 61.4009 233.683 60.1165 235.567 60.0119C237.618 59.8978 239.564 61.1815 240.243 63.1281C240.971 65.2175 240.097 67.6093 238.172 68.721Z" fill="white"/>
<path d="M169.615 142.236L173.996 194.702C174.216 197.339 172.895 199.864 170.604 201.187L158.202 208.347L152.331 146.43L164.358 139.486C166.589 138.199 169.401 139.67 169.615 142.236Z" fill="#97BDEE"/>
<path d="M64.0206 152.642L54.0129 158.42L29.001 121.265L43.1104 113.119L66.0945 141.392C69.0129 144.981 68.0267 150.329 64.0206 152.642Z" fill="#97BDEE"/>
<path d="M6.0607 295C4.38121 295.009 3 293.643 3 291.907C3 290.17 4.33246 288.801 5.98342 288.818C7.07539 288.818 8.08684 288.792 9.09575 288.742C10.6893 288.712 12.085 289.982 12.1622 291.687C12.2366 293.393 10.9843 294.839 9.36514 294.919C8.27028 294.971 7.16711 295 6.0607 295V295ZM20.8518 293.326C19.4991 293.326 18.284 292.338 17.9861 290.89C17.6423 289.221 18.648 287.576 20.2328 287.214C22.9754 286.589 25.7039 285.775 28.349 284.799C29.8764 284.239 31.5501 285.079 32.0889 286.69C32.6276 288.302 31.8224 290.066 30.292 290.631C27.4206 291.693 24.4541 292.576 21.4765 293.257C21.267 293.304 21.058 293.326 20.8518 293.326V293.326ZM40.0245 285.757C38.9899 285.757 37.9868 285.182 37.4538 284.16C36.6684 282.666 37.1844 280.786 38.6032 279.96C41.0594 278.531 43.4524 276.926 45.7132 275.19C47.023 274.187 48.857 274.487 49.8143 275.868C50.7687 277.248 50.4791 279.181 49.1693 280.186C46.7102 282.073 44.111 283.818 41.44 285.372C40.99 285.633 40.5029 285.757 40.0245 285.757V285.757ZM56.3112 272.703C55.5717 272.703 54.8296 272.41 54.2591 271.822C53.1014 270.628 53.0812 268.67 54.2132 267.451C55.632 265.924 56.9988 264.313 58.2771 262.664L59.8218 260.67C60.842 259.346 62.6904 259.147 63.9489 260.229C65.2069 261.308 65.3933 263.257 64.3674 264.579L62.8226 266.572C61.4356 268.365 59.9511 270.115 58.4092 271.774C57.8329 272.392 57.0735 272.703 56.3112 272.703V272.703ZM69.5113 256.134C68.8606 256.134 68.2044 255.906 67.6599 255.438C66.4018 254.359 66.2155 252.412 67.2414 251.089L72.807 243.903C73.8243 242.581 75.6727 242.381 76.9341 243.462C78.1922 244.541 78.3785 246.488 77.3526 247.811L71.7869 254.997C71.2081 255.746 70.3624 256.134 69.5113 256.134ZM82.4965 239.369C81.8458 239.369 81.1897 239.141 80.6451 238.673C79.387 237.594 79.2007 235.647 80.2266 234.323L85.7923 227.137C86.8124 225.815 88.6608 225.616 89.9193 226.697C91.1774 227.776 91.3637 229.723 90.3378 231.046L84.7721 238.232C84.1933 238.981 83.348 239.369 82.4965 239.369V239.369Z" fill="#DBEAFF"/>
<path d="M2.93162 281C1.31124 281 0 279.638 0 277.958C0 276.279 1.31124 274.917 2.93162 274.917C5.71138 274.917 8.50556 274.691 11.2427 274.248C12.8458 273.992 14.3432 275.126 14.5925 276.783C14.8414 278.443 13.748 279.999 12.1475 280.257C9.11266 280.75 6.01222 281 2.93162 281V281ZM22.9977 277.168C21.8182 277.168 20.7075 276.424 20.2609 275.214C19.6798 273.645 20.4355 271.887 21.9473 271.285C24.5355 270.255 27.0635 269.004 29.4565 267.566C30.8536 266.721 32.6486 267.22 33.4617 268.674C34.2748 270.128 33.7968 271.989 32.3939 272.83C29.7343 274.43 26.9257 275.82 24.0485 276.965C23.7019 277.103 23.3469 277.168 22.9977 277.168V277.168ZM40.3782 266.075C39.5796 266.075 38.7864 265.739 38.2081 265.077C37.1202 263.832 37.2089 261.909 38.4087 260.78C40.3753 258.93 42.2219 256.91 43.8968 254.775L44.1287 254.481C45.1478 253.18 46.9943 252.979 48.2514 254.043C49.5082 255.103 49.6972 257.019 48.6753 258.321L48.4434 258.617C46.5824 260.987 44.5327 263.23 42.3482 265.286C41.7869 265.815 41.0827 266.075 40.3782 266.075V266.075ZM53.8138 250.015C53.1638 250.015 52.5084 249.791 51.9644 249.331C50.7105 248.269 50.5215 246.353 51.5434 245.051L57.1004 237.98C58.1252 236.679 59.9689 236.48 61.2257 237.545C62.4796 238.607 62.6686 240.523 61.6466 241.824L56.0897 248.895C55.5089 249.633 54.667 250.015 53.8138 250.015ZM66.7859 233.517C66.1359 233.517 65.4804 233.293 64.9365 232.833C63.6797 231.771 63.4936 229.855 64.5184 228.553L70.0783 221.481C71.0973 220.182 72.9439 219.984 74.201 221.048C75.4578 222.109 75.6439 224.025 74.6191 225.328L69.0592 232.399C68.4806 233.136 67.6361 233.517 66.7859 233.517V233.517ZM79.7576 217.018C79.1076 217.018 78.4522 216.794 77.9082 216.334C76.6514 215.272 76.4653 213.356 77.4901 212.053L79.7977 209.119C80.8167 207.819 82.6633 207.622 83.9204 208.685C85.1772 209.747 85.3633 211.663 84.3385 212.965L82.0309 215.9C81.4523 216.636 80.6079 217.018 79.7576 217.018Z" fill="#EDF4FF"/>
<path d="M53.9299 296C53.0382 296 52.1577 295.573 51.5832 294.764C50.6145 293.4 50.8802 291.47 52.175 290.452C54.4273 288.683 56.6195 286.764 58.6946 284.751C59.8867 283.601 61.7357 283.679 62.8305 284.929C63.9254 286.179 63.8508 288.128 62.662 289.281C60.441 291.436 58.0918 293.491 55.6792 295.388C55.153 295.8 54.5386 296 53.9299 296V296ZM68.7127 281.15C68.0468 281.15 67.3752 280.91 66.8263 280.42C65.5914 279.322 65.4372 277.379 66.4806 276.08L72.0027 268.962C73.0201 267.645 74.8636 267.446 76.1187 268.523C77.3735 269.598 77.5593 271.54 76.5361 272.858L70.951 280.059C70.3705 280.779 69.5447 281.15 68.7127 281.15V281.15ZM81.6664 264.443C81.0174 264.443 80.363 264.216 79.8199 263.75C78.5652 262.674 78.3794 260.734 79.4025 259.415L84.9534 252.255C85.9737 250.939 87.8144 250.735 89.0695 251.815C90.3242 252.891 90.5101 254.831 89.4869 256.15L83.936 263.31C83.3587 264.056 82.5152 264.443 81.6664 264.443V264.443ZM94.6175 247.736C93.9685 247.736 93.3142 247.509 92.7711 247.043C91.5163 245.968 91.3305 244.028 92.3536 242.709L97.9045 235.548C98.9219 234.232 100.766 234.029 102.021 235.109C103.275 236.184 103.461 238.124 102.438 239.443L96.8871 246.604C96.3095 247.35 95.4664 247.736 94.6175 247.736V247.736ZM107.568 231.028C106.919 231.028 106.265 230.801 105.722 230.335C104.467 229.26 104.281 227.32 105.304 226.001L110.855 218.84C111.873 217.523 113.713 217.324 114.971 218.401C116.226 219.476 116.412 221.416 115.389 222.735L109.838 229.896C109.26 230.642 108.417 231.028 107.568 231.028V231.028ZM120.519 214.322C119.87 214.322 119.216 214.095 118.673 213.628C117.418 212.553 117.232 210.613 118.255 209.294L123.806 202.133C124.823 200.816 126.667 200.617 127.922 201.694C129.177 202.769 129.363 204.709 128.34 206.028L122.789 213.189C122.211 213.935 121.368 214.322 120.519 214.322V214.322Z" fill="#EDF4FF"/>
</svg>
