<svg width="512" height="512" viewBox="0 0 512 512" fill="none" xmlns="http://www.w3.org/2000/svg">
<path d="M25.6016 231.07H8.53516C3.82031 231.07 0 227.25 0 222.535C0 217.824 3.82031 214.004 8.53516 214.004H25.6016C30.3125 214.004 34.1328 217.824 34.1328 222.535C34.1328 227.25 30.3125 231.07 25.6016 231.07Z" fill="#805333"/>
<path d="M25.6016 282.27H8.53516C3.82031 282.27 0 278.449 0 273.734C0 269.023 3.82031 265.203 8.53516 265.203H25.6016C30.3125 265.203 34.1328 269.023 34.1328 273.734C34.1328 278.449 30.3125 282.27 25.6016 282.27V282.27Z" fill="#805333"/>
<path d="M25.6016 410.27H8.53516C3.82031 410.27 0 406.449 0 401.734C0 397.023 3.82031 393.203 8.53516 393.203H25.6016C30.3125 393.203 34.1328 397.023 34.1328 401.734C34.1328 406.449 30.3125 410.27 25.6016 410.27V410.27Z" fill="#805333"/>
<path d="M503.465 401.734H486.398C481.687 401.734 477.867 397.914 477.867 393.203C477.867 388.488 481.687 384.668 486.398 384.668H503.465C508.18 384.668 512 388.488 512 393.203C512 397.914 508.18 401.734 503.465 401.734V401.734Z" fill="#805333"/>
<path d="M486.398 302.067V495.602C486.398 500.317 482.578 504.137 477.867 504.137H34.1326C29.4217 504.137 25.6014 500.317 25.6014 495.602V103.41C25.5154 97.6448 27.449 92.0315 31.0623 87.5393C101.289 1.09399 213.332 9.20336 213.332 9.20336C213.332 9.20336 213.332 51.8674 221.867 51.8674C230.398 51.8674 247.465 154.27 247.465 154.27C247.465 154.27 264.535 145.735 273.066 154.27C276.566 157.766 275.797 175.262 274.262 197.02C272.98 214.516 271.273 234.739 270.762 252.828C265.336 249 258.637 247.426 252.074 248.434C239.34 250.746 230.164 261.949 230.398 274.887V359.071H273.066C275.328 359.071 277.5 358.168 279.101 356.571C280.699 354.969 281.601 352.797 281.601 350.535V290.801H307.199L315.734 288.414V359.071C315.734 363.781 319.555 367.602 324.265 367.602H358.398C363.113 367.602 366.933 363.781 366.933 359.071V282.27C366.906 277.235 365.426 272.317 362.668 268.106C363.18 267.508 363.605 266.996 364.117 266.481C365.652 264.778 367.187 263.071 368.555 261.531C372.305 257.125 376.48 253.098 381.012 249.5C381.363 249.242 381.734 249.016 382.121 248.817C382.683 248.446 383.328 248.211 384 248.137C418.133 248.297 451.133 260.403 477.269 282.356C483.027 287.289 486.359 294.485 486.398 302.067V302.067Z" fill="#CB8252"/>
<path d="M486.398 302.066V495.602C486.398 500.316 482.578 504.137 477.867 504.137H34.1328C29.4219 504.137 25.6016 500.316 25.6016 495.602V273.734C110.934 222.535 273.066 196.938 273.066 196.938L274.262 197.02C272.98 214.516 271.273 234.738 270.762 252.828C265.336 249 258.637 247.426 252.074 248.434C239.34 250.746 230.164 261.949 230.398 274.887V350.535C230.398 355.25 234.219 359.07 238.934 359.07H273.066C275.328 359.07 277.5 358.168 279.102 356.57C280.699 354.969 281.602 352.797 281.602 350.535V290.801H307.199L315.734 288.414V359.07C315.734 363.781 319.555 367.602 324.266 367.602H358.398C363.113 367.602 366.934 363.781 366.934 359.07V282.27C366.906 277.234 365.426 272.316 362.668 268.105C363.18 267.508 363.605 266.996 364.117 266.48C365.652 264.777 367.187 263.07 368.555 261.531C372.305 257.125 376.48 253.098 381.012 249.5C381.363 249.242 381.734 249.016 382.121 248.816C382.684 248.445 383.328 248.211 384 248.137C418.133 248.297 451.133 260.402 477.27 282.355C483.027 287.289 486.359 294.484 486.398 302.066V302.066Z" fill="#CB8252"/>
<path d="M274.262 197.02L273.066 196.938C273.066 196.938 110.934 222.536 25.6016 273.735V222.536C110.934 171.336 247.465 154.27 247.465 154.27C247.465 154.27 264.535 145.735 273.066 154.27C276.566 157.766 275.797 175.262 274.262 197.02Z" fill="#805333"/>
<path d="M247.465 154.27C247.465 154.27 110.933 171.336 25.6014 222.535V103.41C25.5154 97.6448 27.449 92.0315 31.0623 87.5393C101.289 1.09399 213.332 9.20336 213.332 9.20336C213.332 9.20336 213.332 51.8674 221.867 51.8674C230.398 51.8674 247.465 154.27 247.465 154.27Z" fill="#CB8252"/>
<path d="M256 393.203C270.137 393.203 281.602 404.664 281.602 418.801V504.137H230.398V418.801C230.398 404.664 241.863 393.203 256 393.203Z" fill="#59474E"/>
<path d="M170.668 410.27C184.805 410.27 196.266 421.73 196.266 435.867V504.137H145.066V435.867C145.066 421.73 156.527 410.27 170.668 410.27V410.27Z" fill="#59474E"/>
<path d="M85.332 427.336C99.4727 427.336 110.934 438.797 110.934 452.938V504.137H59.7344V452.938C59.7344 438.797 71.1953 427.336 85.332 427.336Z" fill="#59474E"/>
<path d="M366.934 504.137H315.734V435.867C315.734 421.73 327.195 410.27 341.332 410.27C355.473 410.27 366.934 421.73 366.934 435.867V504.137Z" fill="#59474E"/>
<path d="M452.266 504.137H401.066V452.938C401.066 438.797 412.527 427.336 426.668 427.336C440.805 427.336 452.266 438.797 452.266 452.938V504.137Z" fill="#59474E"/>
<path d="M145.066 359.07V299.336C145.066 285.195 156.527 273.734 170.668 273.734C184.805 273.734 196.266 285.195 196.266 299.336V359.07C196.266 363.781 192.445 367.602 187.734 367.602H153.602C148.887 367.602 145.066 363.781 145.066 359.07Z" fill="#59474E"/>
<path d="M59.7344 367.602V324.938C59.7344 310.797 71.1953 299.336 85.332 299.336C99.4727 299.336 110.934 310.797 110.934 324.938V367.602C110.934 372.316 107.113 376.137 102.398 376.137H68.2656C63.5547 376.137 59.7344 372.316 59.7344 367.602Z" fill="#59474E"/>
<path d="M452.266 367.602V324.938C452.266 310.797 440.805 299.336 426.668 299.336C412.527 299.336 401.066 310.797 401.066 324.938V367.602C401.066 372.316 404.887 376.137 409.602 376.137H443.734C445.996 376.137 448.168 375.238 449.766 373.637C451.367 372.035 452.266 369.867 452.266 367.602V367.602Z" fill="#59474E"/>
<path d="M59.7344 162.801C55.0195 162.801 51.1992 158.98 51.1992 154.27V120.137C51.1992 115.422 55.0195 111.602 59.7344 111.602C64.4453 111.602 68.2656 115.422 68.2656 120.137V154.27C68.2656 158.98 64.4453 162.801 59.7344 162.801Z" fill="#59474E"/>
<path d="M93.8672 145.734C89.1523 145.734 85.332 141.914 85.332 137.203V94.5352C85.332 89.8242 89.1523 86.0039 93.8672 86.0039C98.5781 86.0039 102.398 89.8242 102.398 94.5352V137.203C102.398 141.914 98.5781 145.734 93.8672 145.734Z" fill="#59474E"/>
<path d="M128 128.668C123.289 128.668 119.465 124.848 119.465 120.137V77.4688C119.465 72.7578 123.289 68.9375 128 68.9375C132.711 68.9375 136.535 72.7578 136.535 77.4688V120.137C136.535 124.848 132.711 128.668 128 128.668Z" fill="#59474E"/>
<path d="M162.133 120.137C157.422 120.137 153.602 116.316 153.602 111.602V68.9375C153.602 64.2227 157.422 60.4023 162.133 60.4023C166.848 60.4023 170.668 64.2227 170.668 68.9375V111.602C170.668 116.316 166.848 120.137 162.133 120.137Z" fill="#59474E"/>
<path d="M196.266 111.602C191.555 111.602 187.734 107.781 187.734 103.07V68.9375C187.734 64.2227 191.555 60.4023 196.266 60.4023C200.98 60.4023 204.801 64.2227 204.801 68.9375V103.07C204.801 107.781 200.98 111.602 196.266 111.602Z" fill="#59474E"/>
</svg>
