<svg width="512" height="512" viewBox="0 0 512 512" fill="none" xmlns="http://www.w3.org/2000/svg">
<g clip-path="url(#clip0)">
<path d="M501.586 168.527L497.422 155.77C495.774 150.844 491.16 147.527 485.965 147.527C480.774 147.527 476.16 150.844 474.512 155.77L471.387 165.402L470.434 168.18C469.219 171.738 468.61 173.559 468.61 173.559H407.863C407.863 173.559 407.606 172.691 406.996 170.871L401.965 155.77C400.317 150.844 395.703 147.527 390.508 147.527C385.317 147.527 380.703 150.844 379.055 155.77L374.02 170.871C373.438 172.633 373.145 174.48 373.152 176.336V494.645C373.152 499.438 377.039 503.324 381.832 503.324H399.188C403.981 503.324 407.863 499.438 407.863 494.645V433.898H468.61V494.645C468.61 499.438 472.496 503.324 477.289 503.324H494.645C499.438 503.324 503.324 499.438 503.324 494.645V179.203C503.313 175.574 502.727 171.973 501.586 168.527V168.527ZM468.61 381.832C468.582 391.406 460.828 399.16 451.254 399.188H425.223C415.649 399.16 407.895 391.406 407.863 381.832V338.441C407.938 329.152 415.25 321.535 424.527 321.086H451.254C460.828 321.113 468.582 328.867 468.61 338.441V381.832ZM468.61 269.02C468.625 277 463.176 283.957 455.422 285.852H455.332C454.004 286.203 452.633 286.379 451.254 286.375H425.223C415.649 286.344 407.895 278.59 407.863 269.02V225.629C407.895 216.055 415.649 208.301 425.223 208.273H451.254C452.719 208.27 454.176 208.445 455.594 208.793C458.664 209.633 461.449 211.281 463.664 213.566C466.824 216.785 468.598 221.117 468.61 225.629V269.02Z" fill="#C03A2B"/>
<path d="M458.371 371.504C447.176 371.59 434.246 371.938 420.273 372.895C418.367 373.067 416.543 373.153 414.547 373.329C396.355 374.684 378.25 377.032 360.309 380.356C358.488 380.618 356.75 380.965 354.93 381.313C339.891 384.204 325.027 387.942 310.41 392.504C307.723 393.286 305.031 394.157 302.426 395.024C288.738 399.61 275.371 405.122 262.422 411.512C261.555 411.946 260.688 412.379 259.82 412.899C247.859 418.942 236.426 425.965 225.629 433.899L156.203 442.579H52.0703C85.2773 424.836 120.16 410.418 156.203 399.536V399.188C156.203 399.188 254.523 360.657 458.371 371.504V371.504Z" fill="#35495E"/>
<path d="M225.629 512H69.4258C64.6328 512 60.7461 508.117 60.7461 503.324V442.578C60.7461 437.785 64.6328 433.898 69.4258 433.898H155.656L222.312 425.57C232.957 417.918 244.175 411.094 255.871 405.168C256.418 404.82 257.492 404.301 258.578 403.734C271.867 397.172 285.585 391.516 299.64 386.805C302.402 385.883 305.195 384.98 307.992 384.199C322.859 379.562 337.976 375.762 353.273 372.816C355.753 372.34 357.386 372.035 359.085 371.793C377.206 368.437 395.491 366.07 413.87 364.703L419.468 364.277C432.023 363.41 444.632 362.957 458.308 362.852C461.417 362.852 464.53 362.852 467.394 362.941C489.655 363.113 503.601 364.484 504.19 364.547C508.612 364.988 511.987 368.707 511.999 373.152V425.223C511.811 430.097 507.784 433.941 502.905 433.898C499.19 433.898 495.554 433.898 492.007 434.062C478.952 434.238 466.112 434.816 453.476 435.801C450.87 435.965 448.546 436.191 446.151 436.426C431.062 437.719 416.648 439.551 402.761 441.945L395.437 443.105C380.163 445.883 364.847 449.414 350.191 453.519C349.015 453.762 347.859 454.074 346.718 454.449C330.468 459.031 314.511 464.605 298.937 471.136C298.011 471.562 296.742 472.082 295.581 472.508C282.484 478.113 269.761 484.55 257.484 491.773C248.296 497 239.586 503.023 231.449 509.769C229.847 511.203 227.777 512 225.629 512V512ZM78.1015 494.644H222.468C230.757 488.097 239.5 482.152 248.632 476.847C261.703 469.172 275.246 462.336 289.183 456.383C290.41 455.926 291.234 455.586 291.98 455.246C308.156 448.453 324.734 442.656 341.617 437.89C343.085 437.398 344.585 436.996 346.105 436.683C360.648 432.555 376.476 428.875 392.601 425.984L396.003 425.437C397.327 425.223 398.675 425.004 400.046 424.805C414.218 422.359 429.089 420.465 444.007 419.191C447.062 418.902 449.589 418.66 452.253 418.488C465.132 417.5 478.374 416.906 491.503 416.75C492.519 416.707 493.569 416.672 494.643 416.648V381.199C488.499 380.809 479.022 380.332 467.065 380.269C464.175 380.184 461.327 380.129 458.386 380.184C445.171 380.285 432.874 380.73 420.882 381.547L415.312 381.969C397.402 383.316 379.581 385.637 361.925 388.914C360.116 389.172 358.765 389.441 357.366 389.711C342.39 392.566 327.589 396.273 313.031 400.809C310.265 401.609 307.687 402.449 305.179 403.285C291.874 407.746 278.886 413.098 266.3 419.305C265.625 419.64 264.972 419.961 264.324 420.363C252.617 426.258 241.414 433.105 230.836 440.844C229.632 441.73 228.222 442.297 226.738 442.48L157.316 451.16C156.949 451.219 156.574 451.25 156.203 451.254H78.1015V494.644Z" fill="#E64C3C"/>
<path d="M344.004 454.898C341.008 454.902 338.222 453.363 336.636 450.82L303.051 397.105C300.511 393.031 301.754 387.668 305.828 385.129C309.902 382.59 315.265 383.832 317.804 387.906L351.39 441.621C353.058 444.297 353.148 447.664 351.625 450.422C350.097 453.179 347.199 454.894 344.047 454.898H344.004Z" fill="#E64C3C"/>
<path d="M295.582 471.82C295.293 471.84 295.004 471.84 294.715 471.82C292.414 471.601 290.301 470.476 288.832 468.695C287.368 466.91 286.672 464.617 286.903 462.32L293.758 394.199C294.071 391.113 296 388.426 298.828 387.148C301.657 385.875 304.95 386.207 307.469 388.019C309.985 389.828 311.348 392.848 311.036 395.934L304.18 464.055C303.715 468.461 300.008 471.809 295.582 471.82V471.82Z" fill="#E64C3C"/>
<path d="M394.164 443.184C391.168 443.188 388.383 441.645 386.793 439.106L352.949 384.957C351.309 382.32 351.195 379.008 352.656 376.27C354.117 373.527 356.93 371.774 360.031 371.668C363.137 371.563 366.059 373.121 367.703 375.758L401.547 429.906C403.219 432.582 403.309 435.953 401.781 438.711C400.254 441.469 397.352 443.184 394.195 443.184H394.164Z" fill="#E64C3C"/>
<path d="M347.82 453.859C347.5 453.859 347.18 453.839 346.859 453.796C342.109 453.269 338.68 449.003 339.188 444.253L346.305 380.382C346.836 375.617 351.129 372.183 355.898 372.714C360.664 373.246 364.098 377.542 363.563 382.308L356.438 446.179C355.934 450.554 352.227 453.855 347.82 453.859V453.859Z" fill="#E64C3C"/>
<path d="M444.754 436.504C441.328 436.504 438.219 434.488 436.824 431.355L412.352 376.426C410.984 373.578 411.274 370.215 413.106 367.64C414.938 365.066 418.02 363.691 421.16 364.051C424.297 364.406 426.992 366.441 428.199 369.363L452.668 424.293C453.863 426.976 453.621 430.082 452.024 432.547C450.426 435.008 447.691 436.5 444.754 436.504Z" fill="#E64C3C"/>
<path d="M401.277 442.058C400.645 442.058 400.016 441.992 399.395 441.855C397.148 441.359 395.191 439.988 393.953 438.046C392.715 436.105 392.301 433.75 392.801 431.503L406.07 371.453C406.738 368.425 408.973 365.984 411.93 365.05C414.887 364.117 418.117 364.832 420.402 366.925C422.691 369.019 423.687 372.175 423.016 375.203L409.75 435.253C408.871 439.226 405.348 442.054 401.277 442.058V442.058Z" fill="#E64C3C"/>
<path d="M491.617 434.082C488.211 434.082 485.117 432.09 483.711 428.988L459.238 375.183C457.383 370.848 459.328 365.824 463.621 363.871C467.914 361.918 472.984 363.75 475.031 368L499.512 421.801C500.738 424.488 500.516 427.613 498.918 430.098C497.32 432.582 494.57 434.082 491.617 434.082V434.082Z" fill="#E64C3C"/>
<path d="M452.824 435.809C452.535 435.825 452.246 435.825 451.957 435.809C447.191 435.329 443.715 431.082 444.191 426.317L449.746 370.68C450.222 365.911 454.476 362.434 459.246 362.914C464.015 363.395 467.492 367.649 467.015 372.418L461.461 428.043C460.992 432.461 457.265 435.813 452.824 435.809V435.809Z" fill="#E64C3C"/>
<path d="M253.058 492.996C252.808 492.996 252.555 492.996 252.285 492.996C247.515 492.574 243.992 488.367 244.406 483.598C246.402 460.914 249.883 425.102 251.183 412.066C251.496 408.981 253.426 406.293 256.254 405.02C259.082 403.742 262.375 404.074 264.894 405.887C267.414 407.699 268.773 410.715 268.461 413.801C267.152 426.816 263.687 462.504 261.691 485.109C261.285 489.574 257.543 492.992 253.058 492.996V492.996Z" fill="#E64C3C"/>
<path d="M292.629 473.039C289.52 473.047 286.645 471.391 285.09 468.7L254.891 415.848C252.649 411.704 254.125 406.528 258.219 404.188C262.309 401.852 267.52 403.207 269.954 407.243L300.153 460.09C301.704 462.778 301.704 466.086 300.153 468.77C298.602 471.457 295.731 473.11 292.629 473.106V473.039Z" fill="#E64C3C"/>
<path d="M477.203 174.516L476.941 176.859C474.598 197.859 472.777 214.086 468.609 234.652C466.355 245.328 463.492 257.215 459.586 271.535C459.586 271.707 457.937 277.523 455.422 285.852H455.332C452.297 295.746 447.957 309.285 443.269 321.086C440.473 329.02 436.746 336.594 432.164 343.648C431.469 344.602 430.687 345.816 429.648 347.379C423.844 356.926 416.48 365.434 407.863 372.547C397.93 380.664 385.891 385.781 373.152 387.301C369.648 387.832 366.109 388.09 362.566 388.078C340.344 387.152 318.687 380.805 299.476 369.598C259.211 348.336 217.035 263.984 200.027 210.961C198.93 207.98 199.551 204.637 201.644 202.246C203.738 199.855 206.969 198.801 210.07 199.496C213.172 200.191 215.644 202.527 216.515 205.582C232.832 256.434 273.531 336.273 307.633 354.324C336.183 369.336 357.359 372.461 373.152 369.684C387.012 367.172 399.41 359.516 407.863 348.246C410.488 344.945 412.922 341.496 415.156 337.922C416.371 336.012 417.41 334.449 418.277 333.234C420.793 329.422 422.891 325.348 424.527 321.086H424.613C428.777 311.105 433.465 297.656 437.023 286.375C439.801 277.781 441.883 270.492 442.836 266.934C448.293 247.84 452.555 228.422 455.594 208.793C457.156 198.121 458.371 187.531 459.758 174.949L459.933 173.559H468.609C468.609 173.559 469.219 171.738 470.433 168.18L471.387 165.402C475.258 166.656 477.695 170.477 477.203 174.516V174.516Z" fill="#E64C3C"/>
<path d="M225.629 381.832C220.836 381.832 216.949 377.945 216.949 373.152C216.949 368.359 220.836 364.477 225.629 364.477C258.465 364.477 289.48 364.477 317.441 345.973C346.645 324.945 366.141 293.039 371.531 257.461C374.656 239.426 376.617 220.75 378.473 202.676C379.539 192.59 380.598 182.516 381.855 172.484C382.551 167.824 386.84 164.57 391.516 165.152C396.191 165.738 399.547 169.949 399.074 174.637C397.844 184.562 396.793 194.527 395.734 204.488C393.809 222.844 391.801 241.805 388.59 260.418C382.363 300.699 360.148 336.762 326.977 360.449C294.703 381.832 259.586 381.832 225.629 381.832V381.832Z" fill="#E64C3C"/>
<path d="M112.469 199.594C108.766 199.594 105.473 197.246 104.266 193.746L98.9807 178.387C90.2268 152.883 81.1838 126.516 71.1252 100.285C69.9885 97.3828 70.4885 94.0937 72.4455 91.668C74.3987 89.2422 77.5041 88.0508 80.5823 88.543C83.6565 89.039 86.2307 91.1445 87.3284 94.0625C97.4963 120.562 106.602 147.086 115.399 172.727L120.668 188.062C121.594 190.715 121.176 193.656 119.547 195.945C117.918 198.238 115.278 199.598 112.469 199.594Z" fill="#E64C3C"/>
<path d="M218.015 18.4257L204.687 5.09374C201.429 1.83203 197.003 -0.00390002 192.39 6.22062e-06H189.441C184.828 -0.00390002 180.402 1.83203 177.144 5.09374L163.839 18.3984C162.636 19.7773 161.703 21.371 161.082 23.0937C156.074 35.3554 144.152 43.3749 130.906 43.3905H96.7927C82.7576 43.078 70.3866 34.0859 65.7616 20.8281C65.5819 20.3437 65.3553 19.8789 65.0858 19.4414L49.8124 5.8164C41.2382 -1.93749 28.1874 -1.93749 19.6132 5.8164L4.33983 19.4414C1.54297 23.7578 0.0351561 28.7851 0 33.9335V503.323C0 508.116 3.88671 511.999 8.67967 511.999H69.4256V399.187C69.4256 389.601 77.1951 381.831 86.781 381.831H138.847C148.433 381.831 156.203 389.601 156.203 399.187V511.999H225.628V36.7968C225.628 29.9062 222.89 23.2968 218.015 18.4257ZM138.847 329.765H86.781C77.1951 329.765 69.4256 321.991 69.4256 312.406V260.339C69.4256 250.753 77.1951 242.984 86.781 242.984H138.847C148.433 242.984 156.203 250.753 156.203 260.339V312.406C156.203 321.991 148.433 329.765 138.847 329.765ZM138.847 190.918H86.781C77.1951 190.918 69.4256 183.144 69.4256 173.558V112.816C69.4256 103.23 77.1951 95.4568 86.781 95.4568H138.847C148.433 95.4568 156.203 103.23 156.203 112.816V173.558C156.203 183.144 148.433 190.918 138.847 190.918Z" fill="#C03A2B"/>
</g>
<defs>
<clipPath id="clip0">
<rect width="512" height="512" fill="white"/>
</clipPath>
</defs>
</svg>
