<svg width="512" height="512" viewBox="0 0 512 512" fill="none" xmlns="http://www.w3.org/2000/svg">
<g clip-path="url(#clip0)">
<path d="M123.586 62L123.676 62.0898L123.762 62H123.586Z" fill="#E6E7E8"/>
<path d="M503.172 397.449H485.516C459.035 265.035 512 185.586 512 185.586C484.266 185.391 456.793 190.953 431.316 201.918C417.457 165.02 423.723 114.965 423.723 114.965C423.723 114.965 361.488 114.965 328.914 188.41C326.621 184.793 324.238 181.262 321.676 177.73C320 175.168 318.145 172.609 316.293 170.137L315.32 168.902C314.172 167.312 313.027 165.813 311.789 164.223C307.289 158.309 302.52 152.484 297.578 146.922L292.547 141.359C290.867 139.508 289.102 137.652 287.34 135.887C285.574 134.121 283.809 132.355 282.043 130.59C276.566 125.293 270.918 120.262 265.094 115.582C263.148 113.906 261.207 112.406 259.266 110.906C259.18 110.816 259.09 110.727 259 110.727C258.738 110.465 258.383 110.285 258.117 110.023C256.441 108.699 254.852 107.551 253.086 106.316C251.055 104.813 248.938 103.312 246.82 101.902C244.438 100.223 241.965 98.6328 239.492 97.1328C237.902 96.0742 236.316 95.1016 234.637 94.1328C232.164 92.7188 229.695 91.3086 227.133 89.8945C225.191 88.8359 223.16 87.6875 221.133 86.7188C220.512 86.4531 219.895 86.0977 219.277 85.8359C216.895 84.5977 214.422 83.4492 212.039 82.3906C210.805 81.7734 209.48 81.2422 208.156 80.625C206.832 80.0078 205.594 79.5664 204.27 79.0391C201.621 77.8906 198.973 76.918 196.238 75.9492C194.383 75.2422 192.617 74.625 190.766 74.0039C189.527 73.5625 188.379 73.2109 187.145 72.8594C183.969 71.7969 180.699 70.8281 177.348 70.0312C174.609 69.2383 171.785 68.5312 168.961 67.9141C165.605 67.1211 162.25 66.4141 158.809 65.7969C156.867 65.4414 154.926 65.0898 152.98 64.8242C151.395 64.5586 149.715 64.2969 148.039 64.1172C143.715 63.5 139.387 63.0586 134.887 62.707C134.094 62.6016 133.301 62.543 132.504 62.5312C130.648 62.3516 128.793 62.2656 126.941 62.1758C125.883 62.0898 124.82 62.0898 123.762 62V62.0898H123.676C125.793 64.7383 158.543 106.578 159.957 187.703C124.566 168.672 83.9258 161.73 44.2266 167.93H44.1367C48.4297 191.141 49.0547 214.883 45.9922 238.285C30.6953 236.711 15.2773 236.801 0 238.551C0 238.551 26.4844 300.344 17.6562 397.449H8.82812C3.95312 397.449 0 401.402 0 406.277V441.586C0 446.461 3.95312 450.414 8.82812 450.414H503.172C508.047 450.414 512 446.461 512 441.586V406.277C512 401.402 508.047 397.449 503.172 397.449V397.449Z" fill="#E6E7E8"/>
<path d="M52.9648 397.449H17.6562C26.4844 300.344 0 238.551 0 238.551C70.6211 282.691 52.9648 397.449 52.9648 397.449Z" fill="#332C38"/>
<path d="M52.9648 397.449C52.9648 397.449 70.6211 282.691 0 238.551C105.93 256.207 150.07 344.484 150.07 397.449H52.9648Z" fill="#665169"/>
<path d="M45.9922 238.285C49.0547 214.883 48.4297 191.141 44.1367 167.93C44.1367 167.93 74.8594 190.973 79.0078 244.203C68.1758 241.363 57.1367 239.387 45.9922 238.285Z" fill="#332C38"/>
<path d="M206.918 223.984C193.191 209.582 177.359 197.348 159.957 187.703C158.543 106.578 125.793 64.7383 123.676 62.0898H123.852C128.883 64.7383 213.098 110.375 206.918 223.984Z" fill="#332C38"/>
<path d="M485.516 397.449H406.07C397.855 346.91 383.199 297.633 362.461 250.82C381.758 229.906 405.211 213.25 431.316 201.918C456.793 190.953 484.266 185.391 512 185.586C512 185.586 459.035 265.035 485.516 397.449Z" fill="#E6E7E8"/>
<path d="M431.316 201.918C405.211 213.25 381.758 229.906 362.461 250.82C352.965 229.156 341.746 208.285 328.914 188.41C361.488 114.965 423.723 114.965 423.723 114.965C423.723 114.965 417.457 165.02 431.316 201.918V201.918Z" fill="#E5D2F0"/>
<path d="M261.648 306.523C248.133 276.152 229.633 248.258 206.918 223.984C213.098 110.375 128.883 64.7383 123.852 62.0898C274.891 96.6055 270.832 243.32 261.648 306.523Z" fill="#665169"/>
<path d="M406.07 397.449H291.309C285.02 366.082 275.062 335.566 261.648 306.523C270.832 243.32 274.891 96.6055 123.852 62.0898H123.762V62C124.82 62.0898 125.883 62.0898 126.941 62.1758C128.793 62.2656 130.648 62.3516 132.504 62.5312C133.301 62.543 134.094 62.6016 134.887 62.707C139.387 63.0586 143.715 63.5 148.039 64.1172C149.715 64.2969 151.395 64.5586 152.98 64.8242C154.926 65.0898 156.867 65.4414 158.809 65.7969C162.25 66.4141 165.605 67.1211 168.961 67.9141C171.785 68.5312 174.609 69.2383 177.348 70.0312C180.699 70.8281 183.969 71.7969 187.145 72.8594C188.379 73.2109 189.527 73.5625 190.766 74.0039C192.617 74.625 194.473 75.2422 196.238 75.9492C198.973 76.918 201.621 77.9766 204.27 79.0391C205.594 79.5664 206.918 80.0977 208.156 80.625C209.391 81.1562 210.805 81.7734 212.039 82.3906C214.512 83.4492 216.895 84.5977 219.277 85.8359C219.895 86.0977 220.512 86.4531 221.133 86.7188C223.16 87.6875 225.102 88.7461 227.133 89.8945C229.695 91.3086 232.164 92.7188 234.637 94.1328C236.316 95.1016 237.902 96.0742 239.492 97.1328C241.965 98.6328 244.438 100.223 246.82 101.902C248.938 103.312 251.055 104.813 253.086 106.316L258.117 110.023C258.383 110.285 258.738 110.465 259 110.727C259.09 110.727 259.18 110.816 259.266 110.906C261.207 112.406 263.148 113.906 265.094 115.582C270.918 120.262 276.566 125.293 282.043 130.59C283.809 132.355 285.574 134.031 287.34 135.887C289.102 137.742 290.867 139.508 292.547 141.359L297.578 146.922C302.52 152.484 307.289 158.309 311.789 164.223C313.027 165.723 314.172 167.312 315.32 168.902L316.293 170.137C318.145 172.609 319.91 175.168 321.676 177.73C324.148 181.262 326.621 184.793 328.914 188.41C341.746 208.285 352.965 229.156 362.461 250.82C383.199 297.633 397.855 346.91 406.07 397.449V397.449Z" fill="#BEACC5"/>
<path d="M167.105 311.555C148.824 277.453 116.711 252.898 79.0078 244.203C74.8594 190.973 44.1367 167.93 44.1367 167.93H44.2266C145.039 168.02 163.93 265.211 167.105 311.555Z" fill="#665169"/>
<path d="M291.309 397.45H185.379C186.277 367.805 180.039 338.375 167.195 311.645L167.105 311.555C163.93 265.211 145.039 168.02 44.2266 167.93C83.9258 161.731 124.566 168.672 159.957 187.703C177.359 197.348 193.191 209.582 206.918 223.985C229.633 248.258 248.133 276.153 261.648 306.524C275.062 335.567 285.02 366.082 291.309 397.45V397.45Z" fill="#E5D2F0"/>
<path d="M185.379 397.449H150.07C150.07 344.485 105.93 256.207 0 238.551C15.2773 236.801 30.6953 236.711 45.9922 238.285C57.1367 239.387 68.1758 241.363 79.0078 244.203C116.711 252.899 148.824 277.453 167.105 311.555L167.195 311.645C180.039 338.375 186.277 367.805 185.379 397.449Z" fill="#BEACC5"/>
<path d="M8.82812 397.449H503.172C508.047 397.449 512 401.402 512 406.277V441.586C512 446.461 508.047 450.414 503.172 450.414H8.82812C3.95312 450.414 0 446.461 0 441.586V406.277C0 401.402 3.95312 397.449 8.82812 397.449V397.449Z" fill="#E6E7E8"/>
</g>
<defs>
<clipPath id="clip0">
<rect width="512" height="512" fill="white"/>
</clipPath>
</defs>
</svg>
