<svg width="1026" height="768" viewBox="0 0 1026 768" fill="none" xmlns="http://www.w3.org/2000/svg">
<path d="M529.031 120H496.969V36C496.969 32.8174 498.658 29.7652 501.664 27.5147C504.671 25.2643 508.748 24 513 24C517.252 24 521.329 25.2643 524.336 27.5147C527.342 29.7652 529.031 32.8174 529.031 36V120Z" fill="#999999"/>
<path d="M496.969 54.4894V96.0004H529.031V43.8154C518.902 48.2473 508.149 51.8271 496.969 54.4894Z" fill="#808080"/>
<path d="M480.938 108L496.969 156V168H529.031V156L545.062 108H480.938Z" fill="#CCCCCC"/>
<path d="M491.484 139.579L496.969 156V168H529.032V156L540.201 122.559C525.366 130.254 508.893 136.01 491.484 139.579V139.579Z" fill="#B3B3B3"/>
<path d="M448.875 156L464.906 204V216H561.094V204L577.125 156H448.875Z" fill="#00A99D"/>
<path d="M463.619 200.148L464.906 204V216H561.093V204L575.746 160.125C539.817 175.627 502.328 189.009 463.619 200.148V200.148Z" fill="#33918B"/>
<path d="M448.875 204L464.906 252V264H561.094V252L577.125 204H448.875Z" fill="#00A99D"/>
<path d="M463.619 248.148L464.906 252V264H561.093V252L575.746 208.125C539.817 223.627 502.328 237.009 463.619 248.148V248.148Z" fill="#33918B"/>
<path d="M448.875 252L464.906 300V312H561.094V300L577.125 252H448.875Z" fill="#00A99D"/>
<path d="M463.619 296.148L464.906 300V312H561.093V300L575.746 256.125C539.817 271.627 502.328 285.009 463.619 296.148V296.148Z" fill="#33918B"/>
<path d="M448.875 300L464.906 348V360H561.094V348L577.125 300H448.875Z" fill="#00A99D"/>
<path d="M463.619 344.148L464.906 348V360H561.093V348L575.746 304.125C539.817 319.627 502.328 333.009 463.619 344.148V344.148Z" fill="#33918B"/>
<path d="M448.875 348L464.906 396V408H561.094V396L577.125 348H448.875Z" fill="#00A99D"/>
<path d="M463.619 392.148L464.906 396V408H561.093V396L575.746 352.125C539.817 367.627 502.328 381.009 463.619 392.148V392.148Z" fill="#33918B"/>
<path d="M448.875 396L464.906 444V456H561.094V444L577.125 396H448.875Z" fill="#00A99D"/>
<path d="M463.619 440.148L464.906 444V456H561.093V444L575.746 400.125C539.817 415.627 502.328 429.009 463.619 440.148V440.148Z" fill="#33918B"/>
<path d="M448.875 444L464.906 492V504H561.094V492L577.125 444H448.875Z" fill="#00A99D"/>
<path d="M463.619 488.148L464.906 492V504H561.093V492L575.746 448.125C539.817 463.627 502.328 477.009 463.619 488.148V488.148Z" fill="#33918B"/>
<path d="M448.875 492L464.906 540V552H561.094V540L577.125 492H448.875Z" fill="#00A99D"/>
<path d="M463.619 536.148L464.906 540V552H561.093V540L575.746 496.125C539.817 511.627 502.328 525.009 463.619 536.148V536.148Z" fill="#33918B"/>
<path d="M448.875 540H577.125L593.156 732H432.844L448.875 540Z" fill="#00A99D"/>
<path d="M480.938 588H545.062V612H480.938V588Z" fill="#CCCCCC"/>
<path d="M480.938 60H545.062V84H480.938V60Z" fill="#CCCCCC"/>
<path d="M480.938 81.5895V84H545.062V60H544.77C525.895 70.6517 504.091 78.0264 480.938 81.5895Z" fill="#B3B3B3"/>
<path d="M437.938 670.997L432.844 732.001H593.156L583.594 617.47C537.597 638.97 488.793 656.905 437.938 670.997V670.997Z" fill="#33918B"/>
<path d="M480.938 648H545.062V672H480.938V648Z" fill="#CCCCCC"/>
<path d="M496.969 696H529.031V732H496.969V696Z" fill="#CCCCCC"/>
<path d="M496.969 714.489V732H529.031V703.815C518.902 708.247 508.149 711.827 496.969 714.489V714.489Z" fill="#B3B3B3"/>
</svg>
